<svg xmlns="http://www.w3.org/2000/svg" version="1.1" xmlns:xlink="http://www.w3.org/1999/xlink" xmlns:svgjs="http://svgjs.com/svgjs" width="1440" height="560" preserveAspectRatio="none" viewBox="0 0 1440 560"><g mask="url(&quot;#SvgjsMask1060&quot;)" fill="none"><g><path d="M1080 376L1096 376L1256 536L1336 536L1352 552L1384 552" stroke-width="2.67" stroke="rgba(58, 124, 195, 0.3)"></path><path d="M1077.33 376 a2.67 2.67 0 1 0 5.34 0 a2.67 2.67 0 1 0 -5.34 0zM1381.33 552 a2.67 2.67 0 1 0 5.34 0 a2.67 2.67 0 1 0 -5.34 0z" fill="rgba(58, 124, 195, 0.3)"></path><path d="M1432 328L1416 328L1368 280L1368 264L1432 200L1432 40" stroke-width="2.67" stroke="rgba(58, 124, 195, 0.3)"></path><path d="M1429.33 328 a2.67 2.67 0 1 0 5.34 0 a2.67 2.67 0 1 0 -5.34 0zM1429.33 40 a2.67 2.67 0 1 0 5.34 0 a2.67 2.67 0 1 0 -5.34 0z" fill="rgba(58, 124, 195, 0.3)"></path><path d="M360 120L600 360L600 376L632 408L648 408" stroke-width="2.67" stroke="rgba(58, 124, 195, 0.3)"></path><path d="M357.33 120 a2.67 2.67 0 1 0 5.34 0 a2.67 2.67 0 1 0 -5.34 0zM645.33 408 a2.67 2.67 0 1 0 5.34 0 a2.67 2.67 0 1 0 -5.34 0z" fill="rgba(58, 124, 195, 0.3)"></path><path d="M984 24L1112 152L1144 152L1288 296" stroke-width="2.67" stroke="rgba(58, 124, 195, 0.3)"></path><path d="M981.33 24 a2.67 2.67 0 1 0 5.34 0 a2.67 2.67 0 1 0 -5.34 0zM1285.33 296 a2.67 2.67 0 1 0 5.34 0 a2.67 2.67 0 1 0 -5.34 0z" fill="rgba(58, 124, 195, 0.3)"></path><path d="M104 136L40 72L8 72" stroke-width="2.67" stroke="rgba(58, 124, 195, 0.3)"></path><path d="M101.33 136 a2.67 2.67 0 1 0 5.34 0 a2.67 2.67 0 1 0 -5.34 0zM5.33 72 a2.67 2.67 0 1 0 5.34 0 a2.67 2.67 0 1 0 -5.34 0z" fill="rgba(58, 124, 195, 0.3)"></path><path d="M296 280L504 280L584 360L584 376" stroke-width="2.67" stroke="rgba(58, 124, 195, 0.3)"></path><path d="M293.33 280 a2.67 2.67 0 1 0 5.34 0 a2.67 2.67 0 1 0 -5.34 0zM581.33 376 a2.67 2.67 0 1 0 5.34 0 a2.67 2.67 0 1 0 -5.34 0z" fill="rgba(58, 124, 195, 0.3)"></path><path d="M952 216L776 216L648 88" stroke-width="2.67" stroke="rgba(58, 124, 195, 0.3)"></path><path d="M949.33 216 a2.67 2.67 0 1 0 5.34 0 a2.67 2.67 0 1 0 -5.34 0zM645.33 88 a2.67 2.67 0 1 0 5.34 0 a2.67 2.67 0 1 0 -5.34 0z" fill="rgba(58, 124, 195, 0.3)"></path><path d="M1032 56L984 8L936 8L776 168L744 168L728 152" stroke-width="2.67" stroke="rgba(58, 124, 195, 0.3)"></path><path d="M1029.33 56 a2.67 2.67 0 1 0 5.34 0 a2.67 2.67 0 1 0 -5.34 0zM725.33 152 a2.67 2.67 0 1 0 5.34 0 a2.67 2.67 0 1 0 -5.34 0z" fill="rgba(58, 124, 195, 0.3)"></path><path d="M1128 280L1256 280L1432 456" stroke-width="2.67" stroke="rgba(58, 124, 195, 0.3)"></path><path d="M1125.33 280 a2.67 2.67 0 1 0 5.34 0 a2.67 2.67 0 1 0 -5.34 0zM1429.33 456 a2.67 2.67 0 1 0 5.34 0 a2.67 2.67 0 1 0 -5.34 0z" fill="rgba(58, 124, 195, 0.3)"></path><path d="M1256 24L1256 248L1336 328" stroke-width="2.67" stroke="rgba(58, 124, 195, 0.3)"></path><path d="M1253.33 24 a2.67 2.67 0 1 0 5.34 0 a2.67 2.67 0 1 0 -5.34 0zM1333.33 328 a2.67 2.67 0 1 0 5.34 0 a2.67 2.67 0 1 0 -5.34 0z" fill="rgba(58, 124, 195, 0.3)"></path><path d="M1304 360L1320 360L1432 472L1432 552" stroke-width="2.67" stroke="rgba(58, 124, 195, 0.3)"></path><path d="M1301.33 360 a2.67 2.67 0 1 0 5.34 0 a2.67 2.67 0 1 0 -5.34 0zM1429.33 552 a2.67 2.67 0 1 0 5.34 0 a2.67 2.67 0 1 0 -5.34 0z" fill="rgba(58, 124, 195, 0.3)"></path><path d="M616 264L760 408L920 408" stroke-width="2.67" stroke="rgba(58, 124, 195, 0.3)"></path><path d="M613.33 264 a2.67 2.67 0 1 0 5.34 0 a2.67 2.67 0 1 0 -5.34 0zM917.33 408 a2.67 2.67 0 1 0 5.34 0 a2.67 2.67 0 1 0 -5.34 0z" fill="rgba(58, 124, 195, 0.3)"></path><path d="M424 376L248 376L152 472L152 504" stroke-width="2.67" stroke="rgba(58, 124, 195, 0.3)"></path><path d="M421.33 376 a2.67 2.67 0 1 0 5.34 0 a2.67 2.67 0 1 0 -5.34 0zM149.33 504 a2.67 2.67 0 1 0 5.34 0 a2.67 2.67 0 1 0 -5.34 0z" fill="rgba(58, 124, 195, 0.3)"></path><path d="M1112 408L1112 440L1224 552L1336 552" stroke-width="2.67" stroke="rgba(58, 124, 195, 0.3)"></path><path d="M1109.33 408 a2.67 2.67 0 1 0 5.34 0 a2.67 2.67 0 1 0 -5.34 0zM1333.33 552 a2.67 2.67 0 1 0 5.34 0 a2.67 2.67 0 1 0 -5.34 0z" fill="rgba(58, 124, 195, 0.3)"></path><path d="M696 552L696 424L728 392" stroke-width="2.67" stroke="rgba(58, 124, 195, 0.3)"></path><path d="M693.33 552 a2.67 2.67 0 1 0 5.34 0 a2.67 2.67 0 1 0 -5.34 0zM725.33 392 a2.67 2.67 0 1 0 5.34 0 a2.67 2.67 0 1 0 -5.34 0z" fill="rgba(58, 124, 195, 0.3)"></path><path d="M1208 344L1272 344L1384 456L1384 536L1400 552L1416 552" stroke-width="2.67" stroke="rgba(58, 124, 195, 0.3)"></path><path d="M1205.33 344 a2.67 2.67 0 1 0 5.34 0 a2.67 2.67 0 1 0 -5.34 0zM1413.33 552 a2.67 2.67 0 1 0 5.34 0 a2.67 2.67 0 1 0 -5.34 0z" fill="rgba(58, 124, 195, 0.3)"></path><path d="M1336 200L1272 200" stroke-width="2.67" stroke="rgba(58, 124, 195, 0.3)"></path><path d="M1333.33 200 a2.67 2.67 0 1 0 5.34 0 a2.67 2.67 0 1 0 -5.34 0zM1269.33 200 a2.67 2.67 0 1 0 5.34 0 a2.67 2.67 0 1 0 -5.34 0z" fill="rgba(58, 124, 195, 0.3)"></path><path d="M72 504L8 504" stroke-width="2.67" stroke="rgba(58, 124, 195, 0.3)"></path><path d="M69.33 504 a2.67 2.67 0 1 0 5.34 0 a2.67 2.67 0 1 0 -5.34 0zM5.33 504 a2.67 2.67 0 1 0 5.34 0 a2.67 2.67 0 1 0 -5.34 0z" fill="rgba(58, 124, 195, 0.3)"></path><path d="M184 360L184 328L248 264L456 264" stroke-width="2.67" stroke="rgba(58, 124, 195, 0.3)"></path><path d="M181.33 360 a2.67 2.67 0 1 0 5.34 0 a2.67 2.67 0 1 0 -5.34 0zM453.33 264 a2.67 2.67 0 1 0 5.34 0 a2.67 2.67 0 1 0 -5.34 0z" fill="rgba(58, 124, 195, 0.3)"></path><path d="M392 232L392 216L328 152L184 152L136 104L120 104L104 120" stroke-width="2.67" stroke="rgba(58, 124, 195, 0.3)"></path><path d="M389.33 232 a2.67 2.67 0 1 0 5.34 0 a2.67 2.67 0 1 0 -5.34 0zM101.33 120 a2.67 2.67 0 1 0 5.34 0 a2.67 2.67 0 1 0 -5.34 0z" fill="rgba(58, 124, 195, 0.3)"></path><path d="M552 264L552 296L632 376L632 392" stroke-width="2.67" stroke="rgba(58, 124, 195, 0.3)"></path><path d="M549.33 264 a2.67 2.67 0 1 0 5.34 0 a2.67 2.67 0 1 0 -5.34 0zM629.33 392 a2.67 2.67 0 1 0 5.34 0 a2.67 2.67 0 1 0 -5.34 0z" fill="rgba(58, 124, 195, 0.3)"></path><path d="M696 200L888 392L920 392L1000 472" stroke-width="2.67" stroke="rgba(58, 124, 195, 0.3)"></path><path d="M693.33 200 a2.67 2.67 0 1 0 5.34 0 a2.67 2.67 0 1 0 -5.34 0zM997.33 472 a2.67 2.67 0 1 0 5.34 0 a2.67 2.67 0 1 0 -5.34 0z" fill="rgba(58, 124, 195, 0.3)"></path><path d="M824 536L824 456L856 424L936 424L1048 536" stroke-width="2.67" stroke="rgba(58, 124, 195, 0.3)"></path><path d="M821.33 536 a2.67 2.67 0 1 0 5.34 0 a2.67 2.67 0 1 0 -5.34 0zM1045.33 536 a2.67 2.67 0 1 0 5.34 0 a2.67 2.67 0 1 0 -5.34 0z" fill="rgba(58, 124, 195, 0.3)"></path><path d="M1032 88L968 24L936 24L856 104L856 120L776 200" stroke-width="2.67" stroke="rgba(58, 124, 195, 0.3)"></path><path d="M1029.33 88 a2.67 2.67 0 1 0 5.34 0 a2.67 2.67 0 1 0 -5.34 0zM773.33 200 a2.67 2.67 0 1 0 5.34 0 a2.67 2.67 0 1 0 -5.34 0z" fill="rgba(58, 124, 195, 0.3)"></path><path d="M264 56L312 8L408 8L456 56L456 168" stroke-width="2.67" stroke="rgba(58, 124, 195, 0.3)"></path><path d="M261.33 56 a2.67 2.67 0 1 0 5.34 0 a2.67 2.67 0 1 0 -5.34 0zM453.33 168 a2.67 2.67 0 1 0 5.34 0 a2.67 2.67 0 1 0 -5.34 0z" fill="rgba(58, 124, 195, 0.3)"></path><path d="M1032 552L1208 552" stroke-width="2.67" stroke="rgba(58, 124, 195, 0.3)"></path><path d="M1029.33 552 a2.67 2.67 0 1 0 5.34 0 a2.67 2.67 0 1 0 -5.34 0zM1205.33 552 a2.67 2.67 0 1 0 5.34 0 a2.67 2.67 0 1 0 -5.34 0z" fill="rgba(58, 124, 195, 0.3)"></path><path d="M1208 56L1208 168L1192 184" stroke-width="2.67" stroke="rgba(58, 124, 195, 0.3)"></path><path d="M1205.33 56 a2.67 2.67 0 1 0 5.34 0 a2.67 2.67 0 1 0 -5.34 0zM1189.33 184 a2.67 2.67 0 1 0 5.34 0 a2.67 2.67 0 1 0 -5.34 0z" fill="rgba(58, 124, 195, 0.3)"></path><path d="M552 24L504 24L488 8L424 8" stroke-width="2.67" stroke="rgba(58, 124, 195, 0.3)"></path><path d="M549.33 24 a2.67 2.67 0 1 0 5.34 0 a2.67 2.67 0 1 0 -5.34 0zM421.33 8 a2.67 2.67 0 1 0 5.34 0 a2.67 2.67 0 1 0 -5.34 0z" fill="rgba(58, 124, 195, 0.3)"></path><path d="M824 296L824 312L888 376L1064 376L1096 408L1096 424" stroke-width="2.67" stroke="rgba(58, 124, 195, 0.3)"></path><path d="M821.33 296 a2.67 2.67 0 1 0 5.34 0 a2.67 2.67 0 1 0 -5.34 0zM1093.33 424 a2.67 2.67 0 1 0 5.34 0 a2.67 2.67 0 1 0 -5.34 0z" fill="rgba(58, 124, 195, 0.3)"></path><path d="M744 8L504 8" stroke-width="2.67" stroke="rgba(58, 124, 195, 0.3)"></path><path d="M741.33 8 a2.67 2.67 0 1 0 5.34 0 a2.67 2.67 0 1 0 -5.34 0zM501.33 8 a2.67 2.67 0 1 0 5.34 0 a2.67 2.67 0 1 0 -5.34 0z" fill="rgba(58, 124, 195, 0.3)"></path><path d="M104 296L136 296L216 216L216 168" stroke-width="2.67" stroke="rgba(58, 124, 195, 0.3)"></path><path d="M101.33 296 a2.67 2.67 0 1 0 5.34 0 a2.67 2.67 0 1 0 -5.34 0zM213.33 168 a2.67 2.67 0 1 0 5.34 0 a2.67 2.67 0 1 0 -5.34 0z" fill="rgba(58, 124, 195, 0.3)"></path><path d="M776 456L712 520L712 552" stroke-width="2.67" stroke="rgba(58, 124, 195, 0.3)"></path><path d="M773.33 456 a2.67 2.67 0 1 0 5.34 0 a2.67 2.67 0 1 0 -5.34 0zM709.33 552 a2.67 2.67 0 1 0 5.34 0 a2.67 2.67 0 1 0 -5.34 0z" fill="rgba(58, 124, 195, 0.3)"></path><path d="M1048 8L1000 8" stroke-width="2.67" stroke="rgba(58, 124, 195, 0.3)"></path><path d="M1045.33 8 a2.67 2.67 0 1 0 5.34 0 a2.67 2.67 0 1 0 -5.34 0zM997.33 8 a2.67 2.67 0 1 0 5.34 0 a2.67 2.67 0 1 0 -5.34 0z" fill="rgba(58, 124, 195, 0.3)"></path><path d="M56 536L8 536" stroke-width="2.67" stroke="rgba(58, 124, 195, 0.3)"></path><path d="M53.33 536 a2.67 2.67 0 1 0 5.34 0 a2.67 2.67 0 1 0 -5.34 0zM5.33 536 a2.67 2.67 0 1 0 5.34 0 a2.67 2.67 0 1 0 -5.34 0z" fill="rgba(58, 124, 195, 0.3)"></path><path d="M648 136L680 136L792 248L792 280L808 296" stroke-width="2.67" stroke="rgba(58, 124, 195, 0.3)"></path><path d="M645.33 136 a2.67 2.67 0 1 0 5.34 0 a2.67 2.67 0 1 0 -5.34 0zM805.33 296 a2.67 2.67 0 1 0 5.34 0 a2.67 2.67 0 1 0 -5.34 0z" fill="rgba(58, 124, 195, 0.3)"></path><path d="M216 328L216 312L232 296L360 296L488 424L488 440" stroke-width="2.67" stroke="rgba(58, 124, 195, 0.3)"></path><path d="M213.33 328 a2.67 2.67 0 1 0 5.34 0 a2.67 2.67 0 1 0 -5.34 0zM485.33 440 a2.67 2.67 0 1 0 5.34 0 a2.67 2.67 0 1 0 -5.34 0z" fill="rgba(58, 124, 195, 0.3)"></path><path d="M904 312L840 312" stroke-width="2.67" stroke="rgba(58, 124, 195, 0.3)"></path><path d="M901.33 312 a2.67 2.67 0 1 0 5.34 0 a2.67 2.67 0 1 0 -5.34 0zM837.33 312 a2.67 2.67 0 1 0 5.34 0 a2.67 2.67 0 1 0 -5.34 0z" fill="rgba(58, 124, 195, 0.3)"></path><path d="M168 280L280 168L328 168L376 216L376 248" stroke-width="2.67" stroke="rgba(58, 124, 195, 0.3)"></path><path d="M165.33 280 a2.67 2.67 0 1 0 5.34 0 a2.67 2.67 0 1 0 -5.34 0zM373.33 248 a2.67 2.67 0 1 0 5.34 0 a2.67 2.67 0 1 0 -5.34 0z" fill="rgba(58, 124, 195, 0.3)"></path><path d="M536 456L440 552L328 552L232 456" stroke-width="2.67" stroke="rgba(58, 124, 195, 0.3)"></path><path d="M533.33 456 a2.67 2.67 0 1 0 5.34 0 a2.67 2.67 0 1 0 -5.34 0zM229.33 456 a2.67 2.67 0 1 0 5.34 0 a2.67 2.67 0 1 0 -5.34 0z" fill="rgba(58, 124, 195, 0.3)"></path><path d="M360 440L296 504" stroke-width="2.67" stroke="rgba(58, 124, 195, 0.3)"></path><path d="M357.33 440 a2.67 2.67 0 1 0 5.34 0 a2.67 2.67 0 1 0 -5.34 0zM293.33 504 a2.67 2.67 0 1 0 5.34 0 a2.67 2.67 0 1 0 -5.34 0z" fill="rgba(58, 124, 195, 0.3)"></path><path d="M760 8L680 88L664 88L600 24L568 24L552 40L456 40" stroke-width="2.67" stroke="rgba(58, 124, 195, 0.3)"></path><path d="M757.33 8 a2.67 2.67 0 1 0 5.34 0 a2.67 2.67 0 1 0 -5.34 0zM453.33 40 a2.67 2.67 0 1 0 5.34 0 a2.67 2.67 0 1 0 -5.34 0z" fill="rgba(58, 124, 195, 0.3)"></path><path d="M1064 280L1096 248L1096 152L1048 104L936 104L920 88" stroke-width="2.67" stroke="rgba(58, 124, 195, 0.3)"></path><path d="M1061.33 280 a2.67 2.67 0 1 0 5.34 0 a2.67 2.67 0 1 0 -5.34 0zM917.33 88 a2.67 2.67 0 1 0 5.34 0 a2.67 2.67 0 1 0 -5.34 0z" fill="rgba(58, 124, 195, 0.3)"></path><path d="M552 152L680 280L680 312L760 392L824 392" stroke-width="2.67" stroke="rgba(58, 124, 195, 0.3)"></path><path d="M549.33 152 a2.67 2.67 0 1 0 5.34 0 a2.67 2.67 0 1 0 -5.34 0zM821.33 392 a2.67 2.67 0 1 0 5.34 0 a2.67 2.67 0 1 0 -5.34 0z" fill="rgba(58, 124, 195, 0.3)"></path><path d="M520 312L504 296L376 296" stroke-width="2.67" stroke="rgba(58, 124, 195, 0.3)"></path><path d="M517.33 312 a2.67 2.67 0 1 0 5.34 0 a2.67 2.67 0 1 0 -5.34 0zM373.33 296 a2.67 2.67 0 1 0 5.34 0 a2.67 2.67 0 1 0 -5.34 0z" fill="rgba(58, 124, 195, 0.3)"></path><path d="M1352 360L1432 360" stroke-width="2.67" stroke="rgba(58, 124, 195, 0.3)"></path><path d="M1349.33 360 a2.67 2.67 0 1 0 5.34 0 a2.67 2.67 0 1 0 -5.34 0zM1429.33 360 a2.67 2.67 0 1 0 5.34 0 a2.67 2.67 0 1 0 -5.34 0z" fill="rgba(58, 124, 195, 0.3)"></path><path d="M344 504L328 520L328 536" stroke-width="2.67" stroke="rgba(58, 124, 195, 0.3)"></path><path d="M341.33 504 a2.67 2.67 0 1 0 5.34 0 a2.67 2.67 0 1 0 -5.34 0zM325.33 536 a2.67 2.67 0 1 0 5.34 0 a2.67 2.67 0 1 0 -5.34 0z" fill="rgba(58, 124, 195, 0.3)"></path><path d="M1224 424L1208 424L1080 296L920 296" stroke-width="2.67" stroke="rgba(58, 124, 195, 0.3)"></path><path d="M1221.33 424 a2.67 2.67 0 1 0 5.34 0 a2.67 2.67 0 1 0 -5.34 0zM917.33 296 a2.67 2.67 0 1 0 5.34 0 a2.67 2.67 0 1 0 -5.34 0z" fill="rgba(58, 124, 195, 0.3)"></path><path d="M696 24L616 24" stroke-width="2.67" stroke="rgba(58, 124, 195, 0.3)"></path><path d="M693.33 24 a2.67 2.67 0 1 0 5.34 0 a2.67 2.67 0 1 0 -5.34 0zM613.33 24 a2.67 2.67 0 1 0 5.34 0 a2.67 2.67 0 1 0 -5.34 0z" fill="rgba(58, 124, 195, 0.3)"></path><path d="M856 136L920 200L1000 200L1064 264" stroke-width="2.67" stroke="rgba(58, 124, 195, 0.3)"></path><path d="M853.33 136 a2.67 2.67 0 1 0 5.34 0 a2.67 2.67 0 1 0 -5.34 0zM1061.33 264 a2.67 2.67 0 1 0 5.34 0 a2.67 2.67 0 1 0 -5.34 0z" fill="rgba(58, 124, 195, 0.3)"></path><path d="M168 376L168 440L104 504L104 552" stroke-width="2.67" stroke="rgba(58, 124, 195, 0.3)"></path><path d="M165.33 376 a2.67 2.67 0 1 0 5.34 0 a2.67 2.67 0 1 0 -5.34 0zM101.33 552 a2.67 2.67 0 1 0 5.34 0 a2.67 2.67 0 1 0 -5.34 0z" fill="rgba(58, 124, 195, 0.3)"></path><path d="M744 280L856 392L872 392" stroke-width="2.67" stroke="rgba(58, 124, 195, 0.3)"></path><path d="M741.33 280 a2.67 2.67 0 1 0 5.34 0 a2.67 2.67 0 1 0 -5.34 0zM869.33 392 a2.67 2.67 0 1 0 5.34 0 a2.67 2.67 0 1 0 -5.34 0z" fill="rgba(58, 124, 195, 0.3)"></path><path d="M120 72L120 88L104 104L88 104L8 24L8 8" stroke-width="2.67" stroke="rgba(58, 124, 195, 0.3)"></path><path d="M117.33 72 a2.67 2.67 0 1 0 5.34 0 a2.67 2.67 0 1 0 -5.34 0zM5.33 8 a2.67 2.67 0 1 0 5.34 0 a2.67 2.67 0 1 0 -5.34 0z" fill="rgba(58, 124, 195, 0.3)"></path><path d="M184 200L184 168L136 120L120 120" stroke-width="2.67" stroke="rgba(58, 124, 195, 0.3)"></path><path d="M181.33 200 a2.67 2.67 0 1 0 5.34 0 a2.67 2.67 0 1 0 -5.34 0zM117.33 120 a2.67 2.67 0 1 0 5.34 0 a2.67 2.67 0 1 0 -5.34 0z" fill="rgba(58, 124, 195, 0.3)"></path><path d="M1000 552L1016 552L1032 536" stroke-width="2.67" stroke="rgba(58, 124, 195, 0.3)"></path><path d="M997.33 552 a2.67 2.67 0 1 0 5.34 0 a2.67 2.67 0 1 0 -5.34 0zM1029.33 536 a2.67 2.67 0 1 0 5.34 0 a2.67 2.67 0 1 0 -5.34 0z" fill="rgba(58, 124, 195, 0.3)"></path><path d="M1240 8L1112 136" stroke-width="2.67" stroke="rgba(58, 124, 195, 0.3)"></path><path d="M1237.33 8 a2.67 2.67 0 1 0 5.34 0 a2.67 2.67 0 1 0 -5.34 0zM1109.33 136 a2.67 2.67 0 1 0 5.34 0 a2.67 2.67 0 1 0 -5.34 0z" fill="rgba(58, 124, 195, 0.3)"></path><path d="M888 504L840 456" stroke-width="2.67" stroke="rgba(58, 124, 195, 0.3)"></path><path d="M885.33 504 a2.67 2.67 0 1 0 5.34 0 a2.67 2.67 0 1 0 -5.34 0zM837.33 456 a2.67 2.67 0 1 0 5.34 0 a2.67 2.67 0 1 0 -5.34 0z" fill="rgba(58, 124, 195, 0.3)"></path><path d="M664 552L488 552L472 536" stroke-width="2.67" stroke="rgba(58, 124, 195, 0.3)"></path><path d="M661.33 552 a2.67 2.67 0 1 0 5.34 0 a2.67 2.67 0 1 0 -5.34 0zM469.33 536 a2.67 2.67 0 1 0 5.34 0 a2.67 2.67 0 1 0 -5.34 0z" fill="rgba(58, 124, 195, 0.3)"></path><path d="M888 440L984 536L984 552" stroke-width="2.67" stroke="rgba(58, 124, 195, 0.3)"></path><path d="M885.33 440 a2.67 2.67 0 1 0 5.34 0 a2.67 2.67 0 1 0 -5.34 0zM981.33 552 a2.67 2.67 0 1 0 5.34 0 a2.67 2.67 0 1 0 -5.34 0z" fill="rgba(58, 124, 195, 0.3)"></path><path d="M856 456L952 552L968 552" stroke-width="2.67" stroke="rgba(58, 124, 195, 0.3)"></path><path d="M853.33 456 a2.67 2.67 0 1 0 5.34 0 a2.67 2.67 0 1 0 -5.34 0zM965.33 552 a2.67 2.67 0 1 0 5.34 0 a2.67 2.67 0 1 0 -5.34 0z" fill="rgba(58, 124, 195, 0.3)"></path><path d="M1288 40L1288 184" stroke-width="2.67" stroke="rgba(58, 124, 195, 0.3)"></path><path d="M1285.33 40 a2.67 2.67 0 1 0 5.34 0 a2.67 2.67 0 1 0 -5.34 0zM1285.33 184 a2.67 2.67 0 1 0 5.34 0 a2.67 2.67 0 1 0 -5.34 0z" fill="rgba(58, 124, 195, 0.3)"></path><path d="M104 88L88 88L24 24L24 8" stroke-width="2.67" stroke="rgba(58, 124, 195, 0.3)"></path><path d="M101.33 88 a2.67 2.67 0 1 0 5.34 0 a2.67 2.67 0 1 0 -5.34 0zM21.33 8 a2.67 2.67 0 1 0 5.34 0 a2.67 2.67 0 1 0 -5.34 0z" fill="rgba(58, 124, 195, 0.3)"></path><path d="M1080 520L1096 536L1192 536" stroke-width="2.67" stroke="rgba(58, 124, 195, 0.3)"></path><path d="M1077.33 520 a2.67 2.67 0 1 0 5.34 0 a2.67 2.67 0 1 0 -5.34 0zM1189.33 536 a2.67 2.67 0 1 0 5.34 0 a2.67 2.67 0 1 0 -5.34 0z" fill="rgba(58, 124, 195, 0.3)"></path><path d="M600 88L632 120L664 120" stroke-width="2.67" stroke="rgba(58, 124, 195, 0.3)"></path><path d="M597.33 88 a2.67 2.67 0 1 0 5.34 0 a2.67 2.67 0 1 0 -5.34 0zM661.33 120 a2.67 2.67 0 1 0 5.34 0 a2.67 2.67 0 1 0 -5.34 0z" fill="rgba(58, 124, 195, 0.3)"></path><path d="M1032 424L968 424L952 408L952 392" stroke-width="2.67" stroke="rgba(58, 124, 195, 0.3)"></path><path d="M1029.33 424 a2.67 2.67 0 1 0 5.34 0 a2.67 2.67 0 1 0 -5.34 0zM949.33 392 a2.67 2.67 0 1 0 5.34 0 a2.67 2.67 0 1 0 -5.34 0z" fill="rgba(58, 124, 195, 0.3)"></path><path d="M72 152L72 216L136 280" stroke-width="2.67" stroke="rgba(58, 124, 195, 0.3)"></path><path d="M69.33 152 a2.67 2.67 0 1 0 5.34 0 a2.67 2.67 0 1 0 -5.34 0zM133.33 280 a2.67 2.67 0 1 0 5.34 0 a2.67 2.67 0 1 0 -5.34 0z" fill="rgba(58, 124, 195, 0.3)"></path><path d="M728 328L760 360L808 360L824 376" stroke-width="2.67" stroke="rgba(58, 124, 195, 0.3)"></path><path d="M725.33 328 a2.67 2.67 0 1 0 5.34 0 a2.67 2.67 0 1 0 -5.34 0zM821.33 376 a2.67 2.67 0 1 0 5.34 0 a2.67 2.67 0 1 0 -5.34 0z" fill="rgba(58, 124, 195, 0.3)"></path><path d="M216 88L264 136L360 136L440 216L440 248" stroke-width="2.67" stroke="rgba(58, 124, 195, 0.3)"></path><path d="M213.33 88 a2.67 2.67 0 1 0 5.34 0 a2.67 2.67 0 1 0 -5.34 0zM437.33 248 a2.67 2.67 0 1 0 5.34 0 a2.67 2.67 0 1 0 -5.34 0z" fill="rgba(58, 124, 195, 0.3)"></path><path d="M1144 504L1032 504L1016 488L1016 472L984 440" stroke-width="2.67" stroke="rgba(58, 124, 195, 0.3)"></path><path d="M1141.33 504 a2.67 2.67 0 1 0 5.34 0 a2.67 2.67 0 1 0 -5.34 0zM981.33 440 a2.67 2.67 0 1 0 5.34 0 a2.67 2.67 0 1 0 -5.34 0z" fill="rgba(58, 124, 195, 0.3)"></path><path d="M1128 312L1112 312L1080 280" stroke-width="2.67" stroke="rgba(58, 124, 195, 0.3)"></path><path d="M1125.33 312 a2.67 2.67 0 1 0 5.34 0 a2.67 2.67 0 1 0 -5.34 0zM1077.33 280 a2.67 2.67 0 1 0 5.34 0 a2.67 2.67 0 1 0 -5.34 0z" fill="rgba(58, 124, 195, 0.3)"></path><path d="M648 232L712 232L744 264" stroke-width="2.67" stroke="rgba(58, 124, 195, 0.3)"></path><path d="M645.33 232 a2.67 2.67 0 1 0 5.34 0 a2.67 2.67 0 1 0 -5.34 0zM741.33 264 a2.67 2.67 0 1 0 5.34 0 a2.67 2.67 0 1 0 -5.34 0z" fill="rgba(58, 124, 195, 0.3)"></path><path d="M1240 408L1240 440L1208 472" stroke-width="2.67" stroke="rgba(58, 124, 195, 0.3)"></path><path d="M1237.33 408 a2.67 2.67 0 1 0 5.34 0 a2.67 2.67 0 1 0 -5.34 0zM1205.33 472 a2.67 2.67 0 1 0 5.34 0 a2.67 2.67 0 1 0 -5.34 0z" fill="rgba(58, 124, 195, 0.3)"></path><path d="M1016 136L1032 120L1048 120L1080 152L1080 248" stroke-width="2.67" stroke="rgba(58, 124, 195, 0.3)"></path><path d="M1013.33 136 a2.67 2.67 0 1 0 5.34 0 a2.67 2.67 0 1 0 -5.34 0zM1077.33 248 a2.67 2.67 0 1 0 5.34 0 a2.67 2.67 0 1 0 -5.34 0z" fill="rgba(58, 124, 195, 0.3)"></path><path d="M904 280L840 280L792 232" stroke-width="2.67" stroke="rgba(58, 124, 195, 0.3)"></path><path d="M901.33 280 a2.67 2.67 0 1 0 5.34 0 a2.67 2.67 0 1 0 -5.34 0zM789.33 232 a2.67 2.67 0 1 0 5.34 0 a2.67 2.67 0 1 0 -5.34 0z" fill="rgba(58, 124, 195, 0.3)"></path><path d="M1048 136L1064 152L1064 168L1032 200L1016 200L1000 184L920 184L872 136L872 104L920 56" stroke-width="2.67" stroke="rgba(58, 124, 195, 0.3)"></path><path d="M1045.33 136 a2.67 2.67 0 1 0 5.34 0 a2.67 2.67 0 1 0 -5.34 0zM917.33 56 a2.67 2.67 0 1 0 5.34 0 a2.67 2.67 0 1 0 -5.34 0z" fill="rgba(58, 124, 195, 0.3)"></path><path d="M104 72L88 72L40 24L40 8" stroke-width="2.67" stroke="rgba(58, 124, 195, 0.3)"></path><path d="M101.33 72 a2.67 2.67 0 1 0 5.34 0 a2.67 2.67 0 1 0 -5.34 0zM37.33 8 a2.67 2.67 0 1 0 5.34 0 a2.67 2.67 0 1 0 -5.34 0z" fill="rgba(58, 124, 195, 0.3)"></path><path d="M1000 312L920 312L888 344L888 360" stroke-width="2.67" stroke="rgba(58, 124, 195, 0.3)"></path><path d="M997.33 312 a2.67 2.67 0 1 0 5.34 0 a2.67 2.67 0 1 0 -5.34 0zM885.33 360 a2.67 2.67 0 1 0 5.34 0 a2.67 2.67 0 1 0 -5.34 0z" fill="rgba(58, 124, 195, 0.3)"></path><path d="M600 472L696 376L696 360L568 232L504 232" stroke-width="2.67" stroke="rgba(58, 124, 195, 0.3)"></path><path d="M597.33 472 a2.67 2.67 0 1 0 5.34 0 a2.67 2.67 0 1 0 -5.34 0zM501.33 232 a2.67 2.67 0 1 0 5.34 0 a2.67 2.67 0 1 0 -5.34 0z" fill="rgba(58, 124, 195, 0.3)"></path><path d="M136 24L280 24L296 8" stroke-width="2.67" stroke="rgba(58, 124, 195, 0.3)"></path><path d="M133.33 24 a2.67 2.67 0 1 0 5.34 0 a2.67 2.67 0 1 0 -5.34 0zM293.33 8 a2.67 2.67 0 1 0 5.34 0 a2.67 2.67 0 1 0 -5.34 0z" fill="rgba(58, 124, 195, 0.3)"></path><path d="M520 264L536 264L552 248L568 248L680 360L680 376L664 392L648 392" stroke-width="2.67" stroke="rgba(58, 124, 195, 0.3)"></path><path d="M517.33 264 a2.67 2.67 0 1 0 5.34 0 a2.67 2.67 0 1 0 -5.34 0zM645.33 392 a2.67 2.67 0 1 0 5.34 0 a2.67 2.67 0 1 0 -5.34 0z" fill="rgba(58, 124, 195, 0.3)"></path><path d="M936 360L904 360" stroke-width="2.67" stroke="rgba(58, 124, 195, 0.3)"></path><path d="M933.33 360 a2.67 2.67 0 1 0 5.34 0 a2.67 2.67 0 1 0 -5.34 0zM901.33 360 a2.67 2.67 0 1 0 5.34 0 a2.67 2.67 0 1 0 -5.34 0z" fill="rgba(58, 124, 195, 0.3)"></path><path d="M1112 472L1096 488L1064 488L1016 440L1000 440" stroke-width="2.67" stroke="rgba(58, 124, 195, 0.3)"></path><path d="M1109.33 472 a2.67 2.67 0 1 0 5.34 0 a2.67 2.67 0 1 0 -5.34 0zM997.33 440 a2.67 2.67 0 1 0 5.34 0 a2.67 2.67 0 1 0 -5.34 0z" fill="rgba(58, 124, 195, 0.3)"></path><path d="M1336 136L1304 104L1304 8" stroke-width="2.67" stroke="rgba(58, 124, 195, 0.3)"></path><path d="M1333.33 136 a2.67 2.67 0 1 0 5.34 0 a2.67 2.67 0 1 0 -5.34 0zM1301.33 8 a2.67 2.67 0 1 0 5.34 0 a2.67 2.67 0 1 0 -5.34 0z" fill="rgba(58, 124, 195, 0.3)"></path><path d="M1096 456L1096 440L1064 408L1064 392" stroke-width="2.67" stroke="rgba(58, 124, 195, 0.3)"></path><path d="M1093.33 456 a2.67 2.67 0 1 0 5.34 0 a2.67 2.67 0 1 0 -5.34 0zM1061.33 392 a2.67 2.67 0 1 0 5.34 0 a2.67 2.67 0 1 0 -5.34 0z" fill="rgba(58, 124, 195, 0.3)"></path><path d="M728 440L728 488L712 504" stroke-width="2.67" stroke="rgba(58, 124, 195, 0.3)"></path><path d="M725.33 440 a2.67 2.67 0 1 0 5.34 0 a2.67 2.67 0 1 0 -5.34 0zM709.33 504 a2.67 2.67 0 1 0 5.34 0 a2.67 2.67 0 1 0 -5.34 0z" fill="rgba(58, 124, 195, 0.3)"></path><path d="M1144 392L1144 408L1192 456L1208 456L1224 440" stroke-width="2.67" stroke="rgba(58, 124, 195, 0.3)"></path><path d="M1141.33 392 a2.67 2.67 0 1 0 5.34 0 a2.67 2.67 0 1 0 -5.34 0zM1221.33 440 a2.67 2.67 0 1 0 5.34 0 a2.67 2.67 0 1 0 -5.34 0z" fill="rgba(58, 124, 195, 0.3)"></path><path d="M248 56L232 72L232 88L264 120L344 120L424 40" stroke-width="2.67" stroke="rgba(58, 124, 195, 0.3)"></path><path d="M245.33 56 a2.67 2.67 0 1 0 5.34 0 a2.67 2.67 0 1 0 -5.34 0zM421.33 40 a2.67 2.67 0 1 0 5.34 0 a2.67 2.67 0 1 0 -5.34 0z" fill="rgba(58, 124, 195, 0.3)"></path><path d="M1048 440L1080 440" stroke-width="2.67" stroke="rgba(58, 124, 195, 0.3)"></path><path d="M1045.33 440 a2.67 2.67 0 1 0 5.34 0 a2.67 2.67 0 1 0 -5.34 0zM1077.33 440 a2.67 2.67 0 1 0 5.34 0 a2.67 2.67 0 1 0 -5.34 0z" fill="rgba(58, 124, 195, 0.3)"></path><path d="M552 424L536 408L536 376L552 360L568 360" stroke-width="2.67" stroke="rgba(58, 124, 195, 0.3)"></path><path d="M549.33 424 a2.67 2.67 0 1 0 5.34 0 a2.67 2.67 0 1 0 -5.34 0zM565.33 360 a2.67 2.67 0 1 0 5.34 0 a2.67 2.67 0 1 0 -5.34 0z" fill="rgba(58, 124, 195, 0.3)"></path><path d="M1336 296L1352 280L1352 264L1320 232L1320 216" stroke-width="2.67" stroke="rgba(58, 124, 195, 0.3)"></path><path d="M1333.33 296 a2.67 2.67 0 1 0 5.34 0 a2.67 2.67 0 1 0 -5.34 0zM1317.33 216 a2.67 2.67 0 1 0 5.34 0 a2.67 2.67 0 1 0 -5.34 0z" fill="rgba(58, 124, 195, 0.3)"></path><path d="M120 232L104 232L88 216L88 200L136 152L152 152L168 168L168 248L152 264L136 264L120 248" stroke-width="2.67" stroke="rgba(58, 124, 195, 0.3)"></path><path d="M117.33 232 a2.67 2.67 0 1 0 5.34 0 a2.67 2.67 0 1 0 -5.34 0zM117.33 248 a2.67 2.67 0 1 0 5.34 0 a2.67 2.67 0 1 0 -5.34 0z" fill="rgba(58, 124, 195, 0.3)"></path><path d="M1352 152L1416 88L1416 8" stroke-width="2.67" stroke="rgba(58, 124, 195, 0.3)"></path><path d="M1349.33 152 a2.67 2.67 0 1 0 5.34 0 a2.67 2.67 0 1 0 -5.34 0zM1413.33 8 a2.67 2.67 0 1 0 5.34 0 a2.67 2.67 0 1 0 -5.34 0z" fill="rgba(58, 124, 195, 0.3)"></path><path d="M1016 232L1048 264L1048 280" stroke-width="2.67" stroke="rgba(58, 124, 195, 0.3)"></path><path d="M1013.33 232 a2.67 2.67 0 1 0 5.34 0 a2.67 2.67 0 1 0 -5.34 0zM1045.33 280 a2.67 2.67 0 1 0 5.34 0 a2.67 2.67 0 1 0 -5.34 0z" fill="rgba(58, 124, 195, 0.3)"></path><path d="M968 408L984 392L1048 392" stroke-width="2.67" stroke="rgba(58, 124, 195, 0.3)"></path><path d="M965.33 408 a2.67 2.67 0 1 0 5.34 0 a2.67 2.67 0 1 0 -5.34 0zM1045.33 392 a2.67 2.67 0 1 0 5.34 0 a2.67 2.67 0 1 0 -5.34 0z" fill="rgba(58, 124, 195, 0.3)"></path><path d="M632 424L600 456L552 456L488 520L488 536" stroke-width="2.67" stroke="rgba(58, 124, 195, 0.3)"></path><path d="M629.33 424 a2.67 2.67 0 1 0 5.34 0 a2.67 2.67 0 1 0 -5.34 0zM485.33 536 a2.67 2.67 0 1 0 5.34 0 a2.67 2.67 0 1 0 -5.34 0z" fill="rgba(58, 124, 195, 0.3)"></path><path d="M248 216L280 184L328 184L344 200L344 216L360 232L360 248" stroke-width="2.67" stroke="rgba(58, 124, 195, 0.3)"></path><path d="M245.33 216 a2.67 2.67 0 1 0 5.34 0 a2.67 2.67 0 1 0 -5.34 0zM357.33 248 a2.67 2.67 0 1 0 5.34 0 a2.67 2.67 0 1 0 -5.34 0z" fill="rgba(58, 124, 195, 0.3)"></path><path d="M744 120L712 88L696 88L680 104" stroke-width="2.67" stroke="rgba(58, 124, 195, 0.3)"></path><path d="M741.33 120 a2.67 2.67 0 1 0 5.34 0 a2.67 2.67 0 1 0 -5.34 0zM677.33 104 a2.67 2.67 0 1 0 5.34 0 a2.67 2.67 0 1 0 -5.34 0z" fill="rgba(58, 124, 195, 0.3)"></path><path d="M1064 312L1080 312L1144 376" stroke-width="2.67" stroke="rgba(58, 124, 195, 0.3)"></path><path d="M1061.33 312 a2.67 2.67 0 1 0 5.34 0 a2.67 2.67 0 1 0 -5.34 0zM1141.33 376 a2.67 2.67 0 1 0 5.34 0 a2.67 2.67 0 1 0 -5.34 0z" fill="rgba(58, 124, 195, 0.3)"></path><path d="M40 88L104 152L104 168L88 184" stroke-width="2.67" stroke="rgba(58, 124, 195, 0.3)"></path><path d="M37.33 88 a2.67 2.67 0 1 0 5.34 0 a2.67 2.67 0 1 0 -5.34 0zM85.33 184 a2.67 2.67 0 1 0 5.34 0 a2.67 2.67 0 1 0 -5.34 0z" fill="rgba(58, 124, 195, 0.3)"></path><path d="M88 440L88 552" stroke-width="2.67" stroke="rgba(58, 124, 195, 0.3)"></path><path d="M85.33 440 a2.67 2.67 0 1 0 5.34 0 a2.67 2.67 0 1 0 -5.34 0zM85.33 552 a2.67 2.67 0 1 0 5.34 0 a2.67 2.67 0 1 0 -5.34 0z" fill="rgba(58, 124, 195, 0.3)"></path><path d="M776 24L776 152" stroke-width="2.67" stroke="rgba(58, 124, 195, 0.3)"></path><path d="M773.33 24 a2.67 2.67 0 1 0 5.34 0 a2.67 2.67 0 1 0 -5.34 0zM773.33 152 a2.67 2.67 0 1 0 5.34 0 a2.67 2.67 0 1 0 -5.34 0z" fill="rgba(58, 124, 195, 0.3)"></path><path d="M312 24L312 104" stroke-width="2.67" stroke="rgba(58, 124, 195, 0.3)"></path><path d="M309.33 24 a2.67 2.67 0 1 0 5.34 0 a2.67 2.67 0 1 0 -5.34 0zM309.33 104 a2.67 2.67 0 1 0 5.34 0 a2.67 2.67 0 1 0 -5.34 0z" fill="rgba(58, 124, 195, 0.3)"></path><path d="M552 104L472 104" stroke-width="2.67" stroke="rgba(58, 124, 195, 0.3)"></path><path d="M549.33 104 a2.67 2.67 0 1 0 5.34 0 a2.67 2.67 0 1 0 -5.34 0zM469.33 104 a2.67 2.67 0 1 0 5.34 0 a2.67 2.67 0 1 0 -5.34 0z" fill="rgba(58, 124, 195, 0.3)"></path><path d="M1400 264L1400 248L1432 216" stroke-width="2.67" stroke="rgba(58, 124, 195, 0.3)"></path><path d="M1397.33 264 a2.67 2.67 0 1 0 5.34 0 a2.67 2.67 0 1 0 -5.34 0zM1429.33 216 a2.67 2.67 0 1 0 5.34 0 a2.67 2.67 0 1 0 -5.34 0z" fill="rgba(58, 124, 195, 0.3)"></path><path d="M1256 360L1160 360L1128 328" stroke-width="2.67" stroke="rgba(58, 124, 195, 0.3)"></path><path d="M1253.33 360 a2.67 2.67 0 1 0 5.34 0 a2.67 2.67 0 1 0 -5.34 0zM1125.33 328 a2.67 2.67 0 1 0 5.34 0 a2.67 2.67 0 1 0 -5.34 0z" fill="rgba(58, 124, 195, 0.3)"></path><path d="M1160 328L1288 328L1304 344" stroke-width="2.67" stroke="rgba(58, 124, 195, 0.3)"></path><path d="M1157.33 328 a2.67 2.67 0 1 0 5.34 0 a2.67 2.67 0 1 0 -5.34 0zM1301.33 344 a2.67 2.67 0 1 0 5.34 0 a2.67 2.67 0 1 0 -5.34 0z" fill="rgba(58, 124, 195, 0.3)"></path><path d="M424 392L440 392L472 424L472 504L440 536" stroke-width="2.67" stroke="rgba(58, 124, 195, 0.3)"></path><path d="M421.33 392 a2.67 2.67 0 1 0 5.34 0 a2.67 2.67 0 1 0 -5.34 0zM437.33 536 a2.67 2.67 0 1 0 5.34 0 a2.67 2.67 0 1 0 -5.34 0z" fill="rgba(58, 124, 195, 0.3)"></path><path d="M680 264L760 344L792 344" stroke-width="2.67" stroke="rgba(58, 124, 195, 0.3)"></path><path d="M677.33 264 a2.67 2.67 0 1 0 5.34 0 a2.67 2.67 0 1 0 -5.34 0zM789.33 344 a2.67 2.67 0 1 0 5.34 0 a2.67 2.67 0 1 0 -5.34 0z" fill="rgba(58, 124, 195, 0.3)"></path><path d="M1000 72L984 88L968 88L936 56L936 40" stroke-width="2.67" stroke="rgba(58, 124, 195, 0.3)"></path><path d="M997.33 72 a2.67 2.67 0 1 0 5.34 0 a2.67 2.67 0 1 0 -5.34 0zM933.33 40 a2.67 2.67 0 1 0 5.34 0 a2.67 2.67 0 1 0 -5.34 0z" fill="rgba(58, 124, 195, 0.3)"></path><path d="M456 200L536 120L616 120L680 184L680 216" stroke-width="2.67" stroke="rgba(58, 124, 195, 0.3)"></path><path d="M453.33 200 a2.67 2.67 0 1 0 5.34 0 a2.67 2.67 0 1 0 -5.34 0zM677.33 216 a2.67 2.67 0 1 0 5.34 0 a2.67 2.67 0 1 0 -5.34 0z" fill="rgba(58, 124, 195, 0.3)"></path><path d="M1288 376L1288 520" stroke-width="2.67" stroke="rgba(58, 124, 195, 0.3)"></path><path d="M1285.33 376 a2.67 2.67 0 1 0 5.34 0 a2.67 2.67 0 1 0 -5.34 0zM1285.33 520 a2.67 2.67 0 1 0 5.34 0 a2.67 2.67 0 1 0 -5.34 0z" fill="rgba(58, 124, 195, 0.3)"></path><path d="M40 456L8 488" stroke-width="2.67" stroke="rgba(58, 124, 195, 0.3)"></path><path d="M37.33 456 a2.67 2.67 0 1 0 5.34 0 a2.67 2.67 0 1 0 -5.34 0zM5.33 488 a2.67 2.67 0 1 0 5.34 0 a2.67 2.67 0 1 0 -5.34 0z" fill="rgba(58, 124, 195, 0.3)"></path><path d="M216 440L200 440L168 472L168 552" stroke-width="2.67" stroke="rgba(58, 124, 195, 0.3)"></path><path d="M213.33 440 a2.67 2.67 0 1 0 5.34 0 a2.67 2.67 0 1 0 -5.34 0zM165.33 552 a2.67 2.67 0 1 0 5.34 0 a2.67 2.67 0 1 0 -5.34 0z" fill="rgba(58, 124, 195, 0.3)"></path><path d="M1144 8L1176 40L1192 40L1224 8" stroke-width="2.67" stroke="rgba(58, 124, 195, 0.3)"></path><path d="M1141.33 8 a2.67 2.67 0 1 0 5.34 0 a2.67 2.67 0 1 0 -5.34 0zM1221.33 8 a2.67 2.67 0 1 0 5.34 0 a2.67 2.67 0 1 0 -5.34 0z" fill="rgba(58, 124, 195, 0.3)"></path><path d="M488 56L488 88" stroke-width="2.67" stroke="rgba(58, 124, 195, 0.3)"></path><path d="M485.33 56 a2.67 2.67 0 1 0 5.34 0 a2.67 2.67 0 1 0 -5.34 0zM485.33 88 a2.67 2.67 0 1 0 5.34 0 a2.67 2.67 0 1 0 -5.34 0z" fill="rgba(58, 124, 195, 0.3)"></path><path d="M360 72L328 104" stroke-width="2.67" stroke="rgba(58, 124, 195, 0.3)"></path><path d="M357.33 72 a2.67 2.67 0 1 0 5.34 0 a2.67 2.67 0 1 0 -5.34 0zM325.33 104 a2.67 2.67 0 1 0 5.34 0 a2.67 2.67 0 1 0 -5.34 0z" fill="rgba(58, 124, 195, 0.3)"></path><path d="M680 520L680 408L712 376" stroke-width="2.67" stroke="rgba(58, 124, 195, 0.3)"></path><path d="M677.33 520 a2.67 2.67 0 1 0 5.34 0 a2.67 2.67 0 1 0 -5.34 0zM709.33 376 a2.67 2.67 0 1 0 5.34 0 a2.67 2.67 0 1 0 -5.34 0z" fill="rgba(58, 124, 195, 0.3)"></path><path d="M840 552L840 472" stroke-width="2.67" stroke="rgba(58, 124, 195, 0.3)"></path><path d="M837.33 552 a2.67 2.67 0 1 0 5.34 0 a2.67 2.67 0 1 0 -5.34 0zM837.33 472 a2.67 2.67 0 1 0 5.34 0 a2.67 2.67 0 1 0 -5.34 0z" fill="rgba(58, 124, 195, 0.3)"></path><path d="M760 536L808 536L824 552" stroke-width="2.67" stroke="rgba(58, 124, 195, 0.3)"></path><path d="M757.33 536 a2.67 2.67 0 1 0 5.34 0 a2.67 2.67 0 1 0 -5.34 0zM821.33 552 a2.67 2.67 0 1 0 5.34 0 a2.67 2.67 0 1 0 -5.34 0z" fill="rgba(58, 124, 195, 0.3)"></path><path d="M744 504L760 520L808 520" stroke-width="2.67" stroke="rgba(58, 124, 195, 0.3)"></path><path d="M741.33 504 a2.67 2.67 0 1 0 5.34 0 a2.67 2.67 0 1 0 -5.34 0zM805.33 520 a2.67 2.67 0 1 0 5.34 0 a2.67 2.67 0 1 0 -5.34 0z" fill="rgba(58, 124, 195, 0.3)"></path><path d="M1160 296L1112 296L1096 280L1096 264L1160 200L1176 200L1240 264" stroke-width="2.67" stroke="rgba(58, 124, 195, 0.3)"></path><path d="M1157.33 296 a2.67 2.67 0 1 0 5.34 0 a2.67 2.67 0 1 0 -5.34 0zM1237.33 264 a2.67 2.67 0 1 0 5.34 0 a2.67 2.67 0 1 0 -5.34 0z" fill="rgba(58, 124, 195, 0.3)"></path><path d="M584 232L600 248L632 248" stroke-width="2.67" stroke="rgba(58, 124, 195, 0.3)"></path><path d="M581.33 232 a2.67 2.67 0 1 0 5.34 0 a2.67 2.67 0 1 0 -5.34 0zM629.33 248 a2.67 2.67 0 1 0 5.34 0 a2.67 2.67 0 1 0 -5.34 0z" fill="rgba(58, 124, 195, 0.3)"></path><path d="M24 408L8 424L8 472" stroke-width="2.67" stroke="rgba(58, 124, 195, 0.3)"></path><path d="M21.33 408 a2.67 2.67 0 1 0 5.34 0 a2.67 2.67 0 1 0 -5.34 0zM5.33 472 a2.67 2.67 0 1 0 5.34 0 a2.67 2.67 0 1 0 -5.34 0z" fill="rgba(58, 124, 195, 0.3)"></path><path d="M728 264L712 248L664 248" stroke-width="2.67" stroke="rgba(58, 124, 195, 0.3)"></path><path d="M725.33 264 a2.67 2.67 0 1 0 5.34 0 a2.67 2.67 0 1 0 -5.34 0zM661.33 248 a2.67 2.67 0 1 0 5.34 0 a2.67 2.67 0 1 0 -5.34 0z" fill="rgba(58, 124, 195, 0.3)"></path><path d="M440 136L392 88" stroke-width="2.67" stroke="rgba(58, 124, 195, 0.3)"></path><path d="M437.33 136 a2.67 2.67 0 1 0 5.34 0 a2.67 2.67 0 1 0 -5.34 0zM389.33 88 a2.67 2.67 0 1 0 5.34 0 a2.67 2.67 0 1 0 -5.34 0z" fill="rgba(58, 124, 195, 0.3)"></path><path d="M104 56L120 40L120 8" stroke-width="2.67" stroke="rgba(58, 124, 195, 0.3)"></path><path d="M101.33 56 a2.67 2.67 0 1 0 5.34 0 a2.67 2.67 0 1 0 -5.34 0zM117.33 8 a2.67 2.67 0 1 0 5.34 0 a2.67 2.67 0 1 0 -5.34 0z" fill="rgba(58, 124, 195, 0.3)"></path><path d="M1272 88L1272 184" stroke-width="2.67" stroke="rgba(58, 124, 195, 0.3)"></path><path d="M1269.33 88 a2.67 2.67 0 1 0 5.34 0 a2.67 2.67 0 1 0 -5.34 0zM1269.33 184 a2.67 2.67 0 1 0 5.34 0 a2.67 2.67 0 1 0 -5.34 0z" fill="rgba(58, 124, 195, 0.3)"></path><path d="M56 376L8 376" stroke-width="2.67" stroke="rgba(58, 124, 195, 0.3)"></path><path d="M53.33 376 a2.67 2.67 0 1 0 5.34 0 a2.67 2.67 0 1 0 -5.34 0zM5.33 376 a2.67 2.67 0 1 0 5.34 0 a2.67 2.67 0 1 0 -5.34 0z" fill="rgba(58, 124, 195, 0.3)"></path><path d="M1352 520L1352 440L1304 392" stroke-width="2.67" stroke="rgba(58, 124, 195, 0.3)"></path><path d="M1349.33 520 a2.67 2.67 0 1 0 5.34 0 a2.67 2.67 0 1 0 -5.34 0zM1301.33 392 a2.67 2.67 0 1 0 5.34 0 a2.67 2.67 0 1 0 -5.34 0z" fill="rgba(58, 124, 195, 0.3)"></path><path d="M1416 168L1416 200L1368 248L1352 248L1336 232L1336 216L1400 152L1416 152" stroke-width="2.67" stroke="rgba(58, 124, 195, 0.3)"></path><path d="M1413.33 168 a2.67 2.67 0 1 0 5.34 0 a2.67 2.67 0 1 0 -5.34 0zM1413.33 152 a2.67 2.67 0 1 0 5.34 0 a2.67 2.67 0 1 0 -5.34 0z" fill="rgba(58, 124, 195, 0.3)"></path><path d="M504 56L504 88" stroke-width="2.67" stroke="rgba(58, 124, 195, 0.3)"></path><path d="M501.33 56 a2.67 2.67 0 1 0 5.34 0 a2.67 2.67 0 1 0 -5.34 0zM501.33 88 a2.67 2.67 0 1 0 5.34 0 a2.67 2.67 0 1 0 -5.34 0z" fill="rgba(58, 124, 195, 0.3)"></path><path d="M952 152L904 152L888 136L888 104L904 88" stroke-width="2.67" stroke="rgba(58, 124, 195, 0.3)"></path><path d="M949.33 152 a2.67 2.67 0 1 0 5.34 0 a2.67 2.67 0 1 0 -5.34 0zM901.33 88 a2.67 2.67 0 1 0 5.34 0 a2.67 2.67 0 1 0 -5.34 0z" fill="rgba(58, 124, 195, 0.3)"></path><path d="M776 504L808 504" stroke-width="2.67" stroke="rgba(58, 124, 195, 0.3)"></path><path d="M773.33 504 a2.67 2.67 0 1 0 5.34 0 a2.67 2.67 0 1 0 -5.34 0zM805.33 504 a2.67 2.67 0 1 0 5.34 0 a2.67 2.67 0 1 0 -5.34 0z" fill="rgba(58, 124, 195, 0.3)"></path><path d="M40 280L136 376L152 376L168 360L168 328L216 280L216 248L232 232L280 232" stroke-width="2.67" stroke="rgba(58, 124, 195, 0.3)"></path><path d="M37.33 280 a2.67 2.67 0 1 0 5.34 0 a2.67 2.67 0 1 0 -5.34 0zM277.33 232 a2.67 2.67 0 1 0 5.34 0 a2.67 2.67 0 1 0 -5.34 0z" fill="rgba(58, 124, 195, 0.3)"></path><path d="M136 456L136 392L56 312L8 312" stroke-width="2.67" stroke="rgba(58, 124, 195, 0.3)"></path><path d="M133.33 456 a2.67 2.67 0 1 0 5.34 0 a2.67 2.67 0 1 0 -5.34 0zM5.33 312 a2.67 2.67 0 1 0 5.34 0 a2.67 2.67 0 1 0 -5.34 0z" fill="rgba(58, 124, 195, 0.3)"></path><path d="M488 360L440 360L392 312" stroke-width="2.67" stroke="rgba(58, 124, 195, 0.3)"></path><path d="M485.33 360 a2.67 2.67 0 1 0 5.34 0 a2.67 2.67 0 1 0 -5.34 0zM389.33 312 a2.67 2.67 0 1 0 5.34 0 a2.67 2.67 0 1 0 -5.34 0z" fill="rgba(58, 124, 195, 0.3)"></path><path d="M1032 408L1048 424L1064 424" stroke-width="2.67" stroke="rgba(58, 124, 195, 0.3)"></path><path d="M1029.33 408 a2.67 2.67 0 1 0 5.34 0 a2.67 2.67 0 1 0 -5.34 0zM1061.33 424 a2.67 2.67 0 1 0 5.34 0 a2.67 2.67 0 1 0 -5.34 0z" fill="rgba(58, 124, 195, 0.3)"></path><path d="M856 264L824 232L808 232" stroke-width="2.67" stroke="rgba(58, 124, 195, 0.3)"></path><path d="M853.33 264 a2.67 2.67 0 1 0 5.34 0 a2.67 2.67 0 1 0 -5.34 0zM805.33 232 a2.67 2.67 0 1 0 5.34 0 a2.67 2.67 0 1 0 -5.34 0z" fill="rgba(58, 124, 195, 0.3)"></path><path d="M280 392L280 408L328 456" stroke-width="2.67" stroke="rgba(58, 124, 195, 0.3)"></path><path d="M277.33 392 a2.67 2.67 0 1 0 5.34 0 a2.67 2.67 0 1 0 -5.34 0zM325.33 456 a2.67 2.67 0 1 0 5.34 0 a2.67 2.67 0 1 0 -5.34 0z" fill="rgba(58, 124, 195, 0.3)"></path><path d="M136 488L136 552" stroke-width="2.67" stroke="rgba(58, 124, 195, 0.3)"></path><path d="M133.33 488 a2.67 2.67 0 1 0 5.34 0 a2.67 2.67 0 1 0 -5.34 0zM133.33 552 a2.67 2.67 0 1 0 5.34 0 a2.67 2.67 0 1 0 -5.34 0z" fill="rgba(58, 124, 195, 0.3)"></path><path d="M1368 328L1400 328L1416 344L1432 344" stroke-width="2.67" stroke="rgba(58, 124, 195, 0.3)"></path><path d="M1365.33 328 a2.67 2.67 0 1 0 5.34 0 a2.67 2.67 0 1 0 -5.34 0zM1429.33 344 a2.67 2.67 0 1 0 5.34 0 a2.67 2.67 0 1 0 -5.34 0z" fill="rgba(58, 124, 195, 0.3)"></path><path d="M488 184L488 232" stroke-width="2.67" stroke="rgba(58, 124, 195, 0.3)"></path><path d="M485.33 184 a2.67 2.67 0 1 0 5.34 0 a2.67 2.67 0 1 0 -5.34 0zM485.33 232 a2.67 2.67 0 1 0 5.34 0 a2.67 2.67 0 1 0 -5.34 0z" fill="rgba(58, 124, 195, 0.3)"></path><path d="M920 136L936 120L1016 120" stroke-width="2.67" stroke="rgba(58, 124, 195, 0.3)"></path><path d="M917.33 136 a2.67 2.67 0 1 0 5.34 0 a2.67 2.67 0 1 0 -5.34 0zM1013.33 120 a2.67 2.67 0 1 0 5.34 0 a2.67 2.67 0 1 0 -5.34 0z" fill="rgba(58, 124, 195, 0.3)"></path><path d="M344 408L360 392L408 392L456 440L456 504L440 520" stroke-width="2.67" stroke="rgba(58, 124, 195, 0.3)"></path><path d="M341.33 408 a2.67 2.67 0 1 0 5.34 0 a2.67 2.67 0 1 0 -5.34 0zM437.33 520 a2.67 2.67 0 1 0 5.34 0 a2.67 2.67 0 1 0 -5.34 0z" fill="rgba(58, 124, 195, 0.3)"></path><path d="M760 104L760 152" stroke-width="2.67" stroke="rgba(58, 124, 195, 0.3)"></path><path d="M757.33 104 a2.67 2.67 0 1 0 5.34 0 a2.67 2.67 0 1 0 -5.34 0zM757.33 152 a2.67 2.67 0 1 0 5.34 0 a2.67 2.67 0 1 0 -5.34 0z" fill="rgba(58, 124, 195, 0.3)"></path><path d="M216 104L200 88L136 88" stroke-width="2.67" stroke="rgba(58, 124, 195, 0.3)"></path><path d="M213.33 104 a2.67 2.67 0 1 0 5.34 0 a2.67 2.67 0 1 0 -5.34 0zM133.33 88 a2.67 2.67 0 1 0 5.34 0 a2.67 2.67 0 1 0 -5.34 0z" fill="rgba(58, 124, 195, 0.3)"></path><path d="M808 456L840 424" stroke-width="2.67" stroke="rgba(58, 124, 195, 0.3)"></path><path d="M805.33 456 a2.67 2.67 0 1 0 5.34 0 a2.67 2.67 0 1 0 -5.34 0zM837.33 424 a2.67 2.67 0 1 0 5.34 0 a2.67 2.67 0 1 0 -5.34 0z" fill="rgba(58, 124, 195, 0.3)"></path><path d="M792 488L760 488" stroke-width="2.67" stroke="rgba(58, 124, 195, 0.3)"></path><path d="M789.33 488 a2.67 2.67 0 1 0 5.34 0 a2.67 2.67 0 1 0 -5.34 0zM757.33 488 a2.67 2.67 0 1 0 5.34 0 a2.67 2.67 0 1 0 -5.34 0z" fill="rgba(58, 124, 195, 0.3)"></path><path d="M920 552L920 536L904 520L888 520L856 488" stroke-width="2.67" stroke="rgba(58, 124, 195, 0.3)"></path><path d="M917.33 552 a2.67 2.67 0 1 0 5.34 0 a2.67 2.67 0 1 0 -5.34 0zM853.33 488 a2.67 2.67 0 1 0 5.34 0 a2.67 2.67 0 1 0 -5.34 0z" fill="rgba(58, 124, 195, 0.3)"></path><path d="M376 360L328 312L232 312" stroke-width="2.67" stroke="rgba(58, 124, 195, 0.3)"></path><path d="M373.33 360 a2.67 2.67 0 1 0 5.34 0 a2.67 2.67 0 1 0 -5.34 0zM229.33 312 a2.67 2.67 0 1 0 5.34 0 a2.67 2.67 0 1 0 -5.34 0z" fill="rgba(58, 124, 195, 0.3)"></path><path d="M568 280L584 280L664 360L664 376" stroke-width="2.67" stroke="rgba(58, 124, 195, 0.3)"></path><path d="M565.33 280 a2.67 2.67 0 1 0 5.34 0 a2.67 2.67 0 1 0 -5.34 0zM661.33 376 a2.67 2.67 0 1 0 5.34 0 a2.67 2.67 0 1 0 -5.34 0z" fill="rgba(58, 124, 195, 0.3)"></path><path d="M360 472L312 520" stroke-width="2.67" stroke="rgba(58, 124, 195, 0.3)"></path><path d="M357.33 472 a2.67 2.67 0 1 0 5.34 0 a2.67 2.67 0 1 0 -5.34 0zM309.33 520 a2.67 2.67 0 1 0 5.34 0 a2.67 2.67 0 1 0 -5.34 0z" fill="rgba(58, 124, 195, 0.3)"></path><path d="M744 72L744 104" stroke-width="2.67" stroke="rgba(58, 124, 195, 0.3)"></path><path d="M741.33 72 a2.67 2.67 0 1 0 5.34 0 a2.67 2.67 0 1 0 -5.34 0zM741.33 104 a2.67 2.67 0 1 0 5.34 0 a2.67 2.67 0 1 0 -5.34 0z" fill="rgba(58, 124, 195, 0.3)"></path><path d="M296 440L264 472" stroke-width="2.67" stroke="rgba(58, 124, 195, 0.3)"></path><path d="M293.33 440 a2.67 2.67 0 1 0 5.34 0 a2.67 2.67 0 1 0 -5.34 0zM261.33 472 a2.67 2.67 0 1 0 5.34 0 a2.67 2.67 0 1 0 -5.34 0z" fill="rgba(58, 124, 195, 0.3)"></path><path d="M616 536L680 536" stroke-width="2.67" stroke="rgba(58, 124, 195, 0.3)"></path><path d="M613.33 536 a2.67 2.67 0 1 0 5.34 0 a2.67 2.67 0 1 0 -5.34 0zM677.33 536 a2.67 2.67 0 1 0 5.34 0 a2.67 2.67 0 1 0 -5.34 0z" fill="rgba(58, 124, 195, 0.3)"></path><path d="M1000 536L1000 504L936 440L904 440" stroke-width="2.67" stroke="rgba(58, 124, 195, 0.3)"></path><path d="M997.33 536 a2.67 2.67 0 1 0 5.34 0 a2.67 2.67 0 1 0 -5.34 0zM901.33 440 a2.67 2.67 0 1 0 5.34 0 a2.67 2.67 0 1 0 -5.34 0z" fill="rgba(58, 124, 195, 0.3)"></path><path d="M104 424L104 376L56 328L8 328" stroke-width="2.67" stroke="rgba(58, 124, 195, 0.3)"></path><path d="M101.33 424 a2.67 2.67 0 1 0 5.34 0 a2.67 2.67 0 1 0 -5.34 0zM5.33 328 a2.67 2.67 0 1 0 5.34 0 a2.67 2.67 0 1 0 -5.34 0z" fill="rgba(58, 124, 195, 0.3)"></path><path d="M1384 184L1352 216L1352 232" stroke-width="2.67" stroke="rgba(58, 124, 195, 0.3)"></path><path d="M1381.33 184 a2.67 2.67 0 1 0 5.34 0 a2.67 2.67 0 1 0 -5.34 0zM1349.33 232 a2.67 2.67 0 1 0 5.34 0 a2.67 2.67 0 1 0 -5.34 0z" fill="rgba(58, 124, 195, 0.3)"></path><path d="M1400 520L1416 504L1416 472L1400 456" stroke-width="2.67" stroke="rgba(58, 124, 195, 0.3)"></path><path d="M1397.33 520 a2.67 2.67 0 1 0 5.34 0 a2.67 2.67 0 1 0 -5.34 0zM1397.33 456 a2.67 2.67 0 1 0 5.34 0 a2.67 2.67 0 1 0 -5.34 0z" fill="rgba(58, 124, 195, 0.3)"></path><path d="M952 168L920 168" stroke-width="2.67" stroke="rgba(58, 124, 195, 0.3)"></path><path d="M949.33 168 a2.67 2.67 0 1 0 5.34 0 a2.67 2.67 0 1 0 -5.34 0zM917.33 168 a2.67 2.67 0 1 0 5.34 0 a2.67 2.67 0 1 0 -5.34 0z" fill="rgba(58, 124, 195, 0.3)"></path><path d="M680 152L776 248L776 264" stroke-width="2.67" stroke="rgba(58, 124, 195, 0.3)"></path><path d="M677.33 152 a2.67 2.67 0 1 0 5.34 0 a2.67 2.67 0 1 0 -5.34 0zM773.33 264 a2.67 2.67 0 1 0 5.34 0 a2.67 2.67 0 1 0 -5.34 0z" fill="rgba(58, 124, 195, 0.3)"></path><path d="M1336 440L1336 520" stroke-width="2.67" stroke="rgba(58, 124, 195, 0.3)"></path><path d="M1333.33 440 a2.67 2.67 0 1 0 5.34 0 a2.67 2.67 0 1 0 -5.34 0zM1333.33 520 a2.67 2.67 0 1 0 5.34 0 a2.67 2.67 0 1 0 -5.34 0z" fill="rgba(58, 124, 195, 0.3)"></path><path d="M616 344L648 376" stroke-width="2.67" stroke="rgba(58, 124, 195, 0.3)"></path><path d="M613.33 344 a2.67 2.67 0 1 0 5.34 0 a2.67 2.67 0 1 0 -5.34 0zM645.33 376 a2.67 2.67 0 1 0 5.34 0 a2.67 2.67 0 1 0 -5.34 0z" fill="rgba(58, 124, 195, 0.3)"></path><path d="M40 408L40 440L24 456" stroke-width="2.67" stroke="rgba(58, 124, 195, 0.3)"></path><path d="M37.33 408 a2.67 2.67 0 1 0 5.34 0 a2.67 2.67 0 1 0 -5.34 0zM21.33 456 a2.67 2.67 0 1 0 5.34 0 a2.67 2.67 0 1 0 -5.34 0z" fill="rgba(58, 124, 195, 0.3)"></path><path d="M1224 392L1208 376L1176 376" stroke-width="2.67" stroke="rgba(58, 124, 195, 0.3)"></path><path d="M1221.33 392 a2.67 2.67 0 1 0 5.34 0 a2.67 2.67 0 1 0 -5.34 0zM1173.33 376 a2.67 2.67 0 1 0 5.34 0 a2.67 2.67 0 1 0 -5.34 0z" fill="rgba(58, 124, 195, 0.3)"></path><path d="M376 328L360 312L344 312" stroke-width="2.67" stroke="rgba(58, 124, 195, 0.3)"></path><path d="M373.33 328 a2.67 2.67 0 1 0 5.34 0 a2.67 2.67 0 1 0 -5.34 0zM341.33 312 a2.67 2.67 0 1 0 5.34 0 a2.67 2.67 0 1 0 -5.34 0z" fill="rgba(58, 124, 195, 0.3)"></path><path d="M936 280L888 232L840 232" stroke-width="2.67" stroke="rgba(58, 124, 195, 0.3)"></path><path d="M933.33 280 a2.67 2.67 0 1 0 5.34 0 a2.67 2.67 0 1 0 -5.34 0zM837.33 232 a2.67 2.67 0 1 0 5.34 0 a2.67 2.67 0 1 0 -5.34 0z" fill="rgba(58, 124, 195, 0.3)"></path><path d="M72 408L56 408L40 392L8 392" stroke-width="2.67" stroke="rgba(58, 124, 195, 0.3)"></path><path d="M69.33 408 a2.67 2.67 0 1 0 5.34 0 a2.67 2.67 0 1 0 -5.34 0zM5.33 392 a2.67 2.67 0 1 0 5.34 0 a2.67 2.67 0 1 0 -5.34 0z" fill="rgba(58, 124, 195, 0.3)"></path><path d="M1112 232L1112 168" stroke-width="2.67" stroke="rgba(58, 124, 195, 0.3)"></path><path d="M1109.33 232 a2.67 2.67 0 1 0 5.34 0 a2.67 2.67 0 1 0 -5.34 0zM1109.33 168 a2.67 2.67 0 1 0 5.34 0 a2.67 2.67 0 1 0 -5.34 0z" fill="rgba(58, 124, 195, 0.3)"></path><path d="M24 232L56 200L56 152L72 136" stroke-width="2.67" stroke="rgba(58, 124, 195, 0.3)"></path><path d="M21.33 232 a2.67 2.67 0 1 0 5.34 0 a2.67 2.67 0 1 0 -5.34 0zM69.33 136 a2.67 2.67 0 1 0 5.34 0 a2.67 2.67 0 1 0 -5.34 0z" fill="rgba(58, 124, 195, 0.3)"></path><path d="M1032 264L984 216L968 216L952 232L904 232" stroke-width="2.67" stroke="rgba(58, 124, 195, 0.3)"></path><path d="M1029.33 264 a2.67 2.67 0 1 0 5.34 0 a2.67 2.67 0 1 0 -5.34 0zM901.33 232 a2.67 2.67 0 1 0 5.34 0 a2.67 2.67 0 1 0 -5.34 0z" fill="rgba(58, 124, 195, 0.3)"></path><path d="M584 488L536 536L504 536" stroke-width="2.67" stroke="rgba(58, 124, 195, 0.3)"></path><path d="M581.33 488 a2.67 2.67 0 1 0 5.34 0 a2.67 2.67 0 1 0 -5.34 0zM501.33 536 a2.67 2.67 0 1 0 5.34 0 a2.67 2.67 0 1 0 -5.34 0z" fill="rgba(58, 124, 195, 0.3)"></path><path d="M1336 24L1384 72L1400 72" stroke-width="2.67" stroke="rgba(58, 124, 195, 0.3)"></path><path d="M1333.33 24 a2.67 2.67 0 1 0 5.34 0 a2.67 2.67 0 1 0 -5.34 0zM1397.33 72 a2.67 2.67 0 1 0 5.34 0 a2.67 2.67 0 1 0 -5.34 0z" fill="rgba(58, 124, 195, 0.3)"></path><path d="M520 440L456 376" stroke-width="2.67" stroke="rgba(58, 124, 195, 0.3)"></path><path d="M517.33 440 a2.67 2.67 0 1 0 5.34 0 a2.67 2.67 0 1 0 -5.34 0zM453.33 376 a2.67 2.67 0 1 0 5.34 0 a2.67 2.67 0 1 0 -5.34 0z" fill="rgba(58, 124, 195, 0.3)"></path><path d="M120 472L104 456L104 440L120 424L120 392" stroke-width="2.67" stroke="rgba(58, 124, 195, 0.3)"></path><path d="M117.33 472 a2.67 2.67 0 1 0 5.34 0 a2.67 2.67 0 1 0 -5.34 0zM117.33 392 a2.67 2.67 0 1 0 5.34 0 a2.67 2.67 0 1 0 -5.34 0z" fill="rgba(58, 124, 195, 0.3)"></path><path d="M184 280L184 296L136 344L120 344L8 232L8 120" stroke-width="2.67" stroke="rgba(58, 124, 195, 0.3)"></path><path d="M181.33 280 a2.67 2.67 0 1 0 5.34 0 a2.67 2.67 0 1 0 -5.34 0zM5.33 120 a2.67 2.67 0 1 0 5.34 0 a2.67 2.67 0 1 0 -5.34 0z" fill="rgba(58, 124, 195, 0.3)"></path><path d="M984 248L920 248" stroke-width="2.67" stroke="rgba(58, 124, 195, 0.3)"></path><path d="M981.33 248 a2.67 2.67 0 1 0 5.34 0 a2.67 2.67 0 1 0 -5.34 0zM917.33 248 a2.67 2.67 0 1 0 5.34 0 a2.67 2.67 0 1 0 -5.34 0z" fill="rgba(58, 124, 195, 0.3)"></path><path d="M1048 344L1064 328L1080 328L1128 376L1128 392" stroke-width="2.67" stroke="rgba(58, 124, 195, 0.3)"></path><path d="M1045.33 344 a2.67 2.67 0 1 0 5.34 0 a2.67 2.67 0 1 0 -5.34 0zM1125.33 392 a2.67 2.67 0 1 0 5.34 0 a2.67 2.67 0 1 0 -5.34 0z" fill="rgba(58, 124, 195, 0.3)"></path><path d="M1384 88L1384 104L1352 136" stroke-width="2.67" stroke="rgba(58, 124, 195, 0.3)"></path><path d="M1381.33 88 a2.67 2.67 0 1 0 5.34 0 a2.67 2.67 0 1 0 -5.34 0zM1349.33 136 a2.67 2.67 0 1 0 5.34 0 a2.67 2.67 0 1 0 -5.34 0z" fill="rgba(58, 124, 195, 0.3)"></path><path d="M1032 328L920 328L904 344" stroke-width="2.67" stroke="rgba(58, 124, 195, 0.3)"></path><path d="M1029.33 328 a2.67 2.67 0 1 0 5.34 0 a2.67 2.67 0 1 0 -5.34 0zM901.33 344 a2.67 2.67 0 1 0 5.34 0 a2.67 2.67 0 1 0 -5.34 0z" fill="rgba(58, 124, 195, 0.3)"></path><path d="M568 376L616 424" stroke-width="2.67" stroke="rgba(58, 124, 195, 0.3)"></path><path d="M565.33 376 a2.67 2.67 0 1 0 5.34 0 a2.67 2.67 0 1 0 -5.34 0zM613.33 424 a2.67 2.67 0 1 0 5.34 0 a2.67 2.67 0 1 0 -5.34 0z" fill="rgba(58, 124, 195, 0.3)"></path><path d="M584 168L648 168L664 184" stroke-width="2.67" stroke="rgba(58, 124, 195, 0.3)"></path><path d="M581.33 168 a2.67 2.67 0 1 0 5.34 0 a2.67 2.67 0 1 0 -5.34 0zM661.33 184 a2.67 2.67 0 1 0 5.34 0 a2.67 2.67 0 1 0 -5.34 0z" fill="rgba(58, 124, 195, 0.3)"></path><path d="M1368 88L1368 72L1320 24L1320 8" stroke-width="2.67" stroke="rgba(58, 124, 195, 0.3)"></path><path d="M1365.33 88 a2.67 2.67 0 1 0 5.34 0 a2.67 2.67 0 1 0 -5.34 0zM1317.33 8 a2.67 2.67 0 1 0 5.34 0 a2.67 2.67 0 1 0 -5.34 0z" fill="rgba(58, 124, 195, 0.3)"></path><path d="M24 360L72 360L88 376L88 424L56 456L56 488" stroke-width="2.67" stroke="rgba(58, 124, 195, 0.3)"></path><path d="M21.33 360 a2.67 2.67 0 1 0 5.34 0 a2.67 2.67 0 1 0 -5.34 0zM53.33 488 a2.67 2.67 0 1 0 5.34 0 a2.67 2.67 0 1 0 -5.34 0z" fill="rgba(58, 124, 195, 0.3)"></path><path d="M856 72L920 8" stroke-width="2.67" stroke="rgba(58, 124, 195, 0.3)"></path><path d="M853.33 72 a2.67 2.67 0 1 0 5.34 0 a2.67 2.67 0 1 0 -5.34 0zM917.33 8 a2.67 2.67 0 1 0 5.34 0 a2.67 2.67 0 1 0 -5.34 0z" fill="rgba(58, 124, 195, 0.3)"></path><path d="M280 248L328 200" stroke-width="2.67" stroke="rgba(58, 124, 195, 0.3)"></path><path d="M277.33 248 a2.67 2.67 0 1 0 5.34 0 a2.67 2.67 0 1 0 -5.34 0zM325.33 200 a2.67 2.67 0 1 0 5.34 0 a2.67 2.67 0 1 0 -5.34 0z" fill="rgba(58, 124, 195, 0.3)"></path><path d="M248 440L264 440L280 424" stroke-width="2.67" stroke="rgba(58, 124, 195, 0.3)"></path><path d="M245.33 440 a2.67 2.67 0 1 0 5.34 0 a2.67 2.67 0 1 0 -5.34 0zM277.33 424 a2.67 2.67 0 1 0 5.34 0 a2.67 2.67 0 1 0 -5.34 0z" fill="rgba(58, 124, 195, 0.3)"></path><path d="M200 456L184 472L184 552" stroke-width="2.67" stroke="rgba(58, 124, 195, 0.3)"></path><path d="M197.33 456 a2.67 2.67 0 1 0 5.34 0 a2.67 2.67 0 1 0 -5.34 0zM181.33 552 a2.67 2.67 0 1 0 5.34 0 a2.67 2.67 0 1 0 -5.34 0z" fill="rgba(58, 124, 195, 0.3)"></path><path d="M1080 72L1048 72" stroke-width="2.67" stroke="rgba(58, 124, 195, 0.3)"></path><path d="M1077.33 72 a2.67 2.67 0 1 0 5.34 0 a2.67 2.67 0 1 0 -5.34 0zM1045.33 72 a2.67 2.67 0 1 0 5.34 0 a2.67 2.67 0 1 0 -5.34 0z" fill="rgba(58, 124, 195, 0.3)"></path><path d="M1240 312L1144 312" stroke-width="2.67" stroke="rgba(58, 124, 195, 0.3)"></path><path d="M1237.33 312 a2.67 2.67 0 1 0 5.34 0 a2.67 2.67 0 1 0 -5.34 0zM1141.33 312 a2.67 2.67 0 1 0 5.34 0 a2.67 2.67 0 1 0 -5.34 0z" fill="rgba(58, 124, 195, 0.3)"></path><path d="M408 72L440 104L440 120" stroke-width="2.67" stroke="rgba(58, 124, 195, 0.3)"></path><path d="M405.33 72 a2.67 2.67 0 1 0 5.34 0 a2.67 2.67 0 1 0 -5.34 0zM437.33 120 a2.67 2.67 0 1 0 5.34 0 a2.67 2.67 0 1 0 -5.34 0z" fill="rgba(58, 124, 195, 0.3)"></path><path d="M984 344L920 344" stroke-width="2.67" stroke="rgba(58, 124, 195, 0.3)"></path><path d="M981.33 344 a2.67 2.67 0 1 0 5.34 0 a2.67 2.67 0 1 0 -5.34 0zM917.33 344 a2.67 2.67 0 1 0 5.34 0 a2.67 2.67 0 1 0 -5.34 0z" fill="rgba(58, 124, 195, 0.3)"></path><path d="M392 504L440 456L440 440" stroke-width="2.67" stroke="rgba(58, 124, 195, 0.3)"></path><path d="M389.33 504 a2.67 2.67 0 1 0 5.34 0 a2.67 2.67 0 1 0 -5.34 0zM437.33 440 a2.67 2.67 0 1 0 5.34 0 a2.67 2.67 0 1 0 -5.34 0z" fill="rgba(58, 124, 195, 0.3)"></path><path d="M1256 456L1224 488" stroke-width="2.67" stroke="rgba(58, 124, 195, 0.3)"></path><path d="M1253.33 456 a2.67 2.67 0 1 0 5.34 0 a2.67 2.67 0 1 0 -5.34 0zM1221.33 488 a2.67 2.67 0 1 0 5.34 0 a2.67 2.67 0 1 0 -5.34 0z" fill="rgba(58, 124, 195, 0.3)"></path><path d="M232 136L200 104L152 104" stroke-width="2.67" stroke="rgba(58, 124, 195, 0.3)"></path><path d="M229.33 136 a2.67 2.67 0 1 0 5.34 0 a2.67 2.67 0 1 0 -5.34 0zM149.33 104 a2.67 2.67 0 1 0 5.34 0 a2.67 2.67 0 1 0 -5.34 0z" fill="rgba(58, 124, 195, 0.3)"></path><path d="M1128 8L1128 104" stroke-width="2.67" stroke="rgba(58, 124, 195, 0.3)"></path><path d="M1125.33 8 a2.67 2.67 0 1 0 5.34 0 a2.67 2.67 0 1 0 -5.34 0zM1125.33 104 a2.67 2.67 0 1 0 5.34 0 a2.67 2.67 0 1 0 -5.34 0z" fill="rgba(58, 124, 195, 0.3)"></path><path d="M536 488L568 488L584 472" stroke-width="2.67" stroke="rgba(58, 124, 195, 0.3)"></path><path d="M533.33 488 a2.67 2.67 0 1 0 5.34 0 a2.67 2.67 0 1 0 -5.34 0zM581.33 472 a2.67 2.67 0 1 0 5.34 0 a2.67 2.67 0 1 0 -5.34 0z" fill="rgba(58, 124, 195, 0.3)"></path><path d="M872 200L856 200L824 168" stroke-width="2.67" stroke="rgba(58, 124, 195, 0.3)"></path><path d="M869.33 200 a2.67 2.67 0 1 0 5.34 0 a2.67 2.67 0 1 0 -5.34 0zM821.33 168 a2.67 2.67 0 1 0 5.34 0 a2.67 2.67 0 1 0 -5.34 0z" fill="rgba(58, 124, 195, 0.3)"></path><path d="M600 504L584 520L584 536" stroke-width="2.67" stroke="rgba(58, 124, 195, 0.3)"></path><path d="M597.33 504 a2.67 2.67 0 1 0 5.34 0 a2.67 2.67 0 1 0 -5.34 0zM581.33 536 a2.67 2.67 0 1 0 5.34 0 a2.67 2.67 0 1 0 -5.34 0z" fill="rgba(58, 124, 195, 0.3)"></path><path d="M856 520L872 520L904 552" stroke-width="2.67" stroke="rgba(58, 124, 195, 0.3)"></path><path d="M853.33 520 a2.67 2.67 0 1 0 5.34 0 a2.67 2.67 0 1 0 -5.34 0zM901.33 552 a2.67 2.67 0 1 0 5.34 0 a2.67 2.67 0 1 0 -5.34 0z" fill="rgba(58, 124, 195, 0.3)"></path><path d="M56 120L24 152L24 216" stroke-width="2.67" stroke="rgba(58, 124, 195, 0.3)"></path><path d="M53.33 120 a2.67 2.67 0 1 0 5.34 0 a2.67 2.67 0 1 0 -5.34 0zM21.33 216 a2.67 2.67 0 1 0 5.34 0 a2.67 2.67 0 1 0 -5.34 0z" fill="rgba(58, 124, 195, 0.3)"></path><path d="M1000 136L936 136" stroke-width="2.67" stroke="rgba(58, 124, 195, 0.3)"></path><path d="M997.33 136 a2.67 2.67 0 1 0 5.34 0 a2.67 2.67 0 1 0 -5.34 0zM933.33 136 a2.67 2.67 0 1 0 5.34 0 a2.67 2.67 0 1 0 -5.34 0z" fill="rgba(58, 124, 195, 0.3)"></path><path d="M552 376L600 424L600 440" stroke-width="2.67" stroke="rgba(58, 124, 195, 0.3)"></path><path d="M549.33 376 a2.67 2.67 0 1 0 5.34 0 a2.67 2.67 0 1 0 -5.34 0zM597.33 440 a2.67 2.67 0 1 0 5.34 0 a2.67 2.67 0 1 0 -5.34 0z" fill="rgba(58, 124, 195, 0.3)"></path><path d="M1208 200L1240 232" stroke-width="2.67" stroke="rgba(58, 124, 195, 0.3)"></path><path d="M1205.33 200 a2.67 2.67 0 1 0 5.34 0 a2.67 2.67 0 1 0 -5.34 0zM1237.33 232 a2.67 2.67 0 1 0 5.34 0 a2.67 2.67 0 1 0 -5.34 0z" fill="rgba(58, 124, 195, 0.3)"></path><path d="M280 104L296 88L296 40" stroke-width="2.67" stroke="rgba(58, 124, 195, 0.3)"></path><path d="M277.33 104 a2.67 2.67 0 1 0 5.34 0 a2.67 2.67 0 1 0 -5.34 0zM293.33 40 a2.67 2.67 0 1 0 5.34 0 a2.67 2.67 0 1 0 -5.34 0z" fill="rgba(58, 124, 195, 0.3)"></path><path d="M120 328L152 296L168 296" stroke-width="2.67" stroke="rgba(58, 124, 195, 0.3)"></path><path d="M117.33 328 a2.67 2.67 0 1 0 5.34 0 a2.67 2.67 0 1 0 -5.34 0zM165.33 296 a2.67 2.67 0 1 0 5.34 0 a2.67 2.67 0 1 0 -5.34 0z" fill="rgba(58, 124, 195, 0.3)"></path><path d="M936 264L1016 264L1032 280" stroke-width="2.67" stroke="rgba(58, 124, 195, 0.3)"></path><path d="M933.33 264 a2.67 2.67 0 1 0 5.34 0 a2.67 2.67 0 1 0 -5.34 0zM1029.33 280 a2.67 2.67 0 1 0 5.34 0 a2.67 2.67 0 1 0 -5.34 0z" fill="rgba(58, 124, 195, 0.3)"></path><path d="M616 88L568 40" stroke-width="2.67" stroke="rgba(58, 124, 195, 0.3)"></path><path d="M613.33 88 a2.67 2.67 0 1 0 5.34 0 a2.67 2.67 0 1 0 -5.34 0zM565.33 40 a2.67 2.67 0 1 0 5.34 0 a2.67 2.67 0 1 0 -5.34 0z" fill="rgba(58, 124, 195, 0.3)"></path><path d="M1256 440L1272 456L1272 520" stroke-width="2.67" stroke="rgba(58, 124, 195, 0.3)"></path><path d="M1253.33 440 a2.67 2.67 0 1 0 5.34 0 a2.67 2.67 0 1 0 -5.34 0zM1269.33 520 a2.67 2.67 0 1 0 5.34 0 a2.67 2.67 0 1 0 -5.34 0z" fill="rgba(58, 124, 195, 0.3)"></path><path d="M632 504L632 456" stroke-width="2.67" stroke="rgba(58, 124, 195, 0.3)"></path><path d="M629.33 504 a2.67 2.67 0 1 0 5.34 0 a2.67 2.67 0 1 0 -5.34 0zM629.33 456 a2.67 2.67 0 1 0 5.34 0 a2.67 2.67 0 1 0 -5.34 0z" fill="rgba(58, 124, 195, 0.3)"></path><path d="M856 8L856 24L792 88L792 136" stroke-width="2.67" stroke="rgba(58, 124, 195, 0.3)"></path><path d="M853.33 8 a2.67 2.67 0 1 0 5.34 0 a2.67 2.67 0 1 0 -5.34 0zM789.33 136 a2.67 2.67 0 1 0 5.34 0 a2.67 2.67 0 1 0 -5.34 0z" fill="rgba(58, 124, 195, 0.3)"></path><path d="M216 392L248 360L360 360" stroke-width="2.67" stroke="rgba(58, 124, 195, 0.3)"></path><path d="M213.33 392 a2.67 2.67 0 1 0 5.34 0 a2.67 2.67 0 1 0 -5.34 0zM357.33 360 a2.67 2.67 0 1 0 5.34 0 a2.67 2.67 0 1 0 -5.34 0z" fill="rgba(58, 124, 195, 0.3)"></path><path d="M568 184L616 232" stroke-width="2.67" stroke="rgba(58, 124, 195, 0.3)"></path><path d="M565.33 184 a2.67 2.67 0 1 0 5.34 0 a2.67 2.67 0 1 0 -5.34 0zM613.33 232 a2.67 2.67 0 1 0 5.34 0 a2.67 2.67 0 1 0 -5.34 0z" fill="rgba(58, 124, 195, 0.3)"></path><path d="M1144 456L1160 456L1208 504" stroke-width="2.67" stroke="rgba(58, 124, 195, 0.3)"></path><path d="M1141.33 456 a2.67 2.67 0 1 0 5.34 0 a2.67 2.67 0 1 0 -5.34 0zM1205.33 504 a2.67 2.67 0 1 0 5.34 0 a2.67 2.67 0 1 0 -5.34 0z" fill="rgba(58, 124, 195, 0.3)"></path><path d="M952 88L936 88L920 72" stroke-width="2.67" stroke="rgba(58, 124, 195, 0.3)"></path><path d="M949.33 88 a2.67 2.67 0 1 0 5.34 0 a2.67 2.67 0 1 0 -5.34 0zM917.33 72 a2.67 2.67 0 1 0 5.34 0 a2.67 2.67 0 1 0 -5.34 0z" fill="rgba(58, 124, 195, 0.3)"></path><path d="M712 104L712 136" stroke-width="2.67" stroke="rgba(58, 124, 195, 0.3)"></path><path d="M709.33 104 a2.67 2.67 0 1 0 5.34 0 a2.67 2.67 0 1 0 -5.34 0zM709.33 136 a2.67 2.67 0 1 0 5.34 0 a2.67 2.67 0 1 0 -5.34 0z" fill="rgba(58, 124, 195, 0.3)"></path><path d="M760 424L792 456L792 472L808 488" stroke-width="2.67" stroke="rgba(58, 124, 195, 0.3)"></path><path d="M757.33 424 a2.67 2.67 0 1 0 5.34 0 a2.67 2.67 0 1 0 -5.34 0zM805.33 488 a2.67 2.67 0 1 0 5.34 0 a2.67 2.67 0 1 0 -5.34 0z" fill="rgba(58, 124, 195, 0.3)"></path><path d="M616 504L616 472" stroke-width="2.67" stroke="rgba(58, 124, 195, 0.3)"></path><path d="M613.33 504 a2.67 2.67 0 1 0 5.34 0 a2.67 2.67 0 1 0 -5.34 0zM613.33 472 a2.67 2.67 0 1 0 5.34 0 a2.67 2.67 0 1 0 -5.34 0z" fill="rgba(58, 124, 195, 0.3)"></path><path d="M568 104L600 104" stroke-width="2.67" stroke="rgba(58, 124, 195, 0.3)"></path><path d="M565.33 104 a2.67 2.67 0 1 0 5.34 0 a2.67 2.67 0 1 0 -5.34 0zM597.33 104 a2.67 2.67 0 1 0 5.34 0 a2.67 2.67 0 1 0 -5.34 0z" fill="rgba(58, 124, 195, 0.3)"></path><path d="M664 472L664 520" stroke-width="2.67" stroke="rgba(58, 124, 195, 0.3)"></path><path d="M661.33 472 a2.67 2.67 0 1 0 5.34 0 a2.67 2.67 0 1 0 -5.34 0zM661.33 520 a2.67 2.67 0 1 0 5.34 0 a2.67 2.67 0 1 0 -5.34 0z" fill="rgba(58, 124, 195, 0.3)"></path><path d="M824 72L888 8L904 8" stroke-width="2.67" stroke="rgba(58, 124, 195, 0.3)"></path><path d="M821.33 72 a2.67 2.67 0 1 0 5.34 0 a2.67 2.67 0 1 0 -5.34 0zM901.33 8 a2.67 2.67 0 1 0 5.34 0 a2.67 2.67 0 1 0 -5.34 0z" fill="rgba(58, 124, 195, 0.3)"></path><path d="M248 552L264 536L296 536L312 552" stroke-width="2.67" stroke="rgba(58, 124, 195, 0.3)"></path><path d="M245.33 552 a2.67 2.67 0 1 0 5.34 0 a2.67 2.67 0 1 0 -5.34 0zM309.33 552 a2.67 2.67 0 1 0 5.34 0 a2.67 2.67 0 1 0 -5.34 0z" fill="rgba(58, 124, 195, 0.3)"></path><path d="M360 56L360 40L344 24L328 24" stroke-width="2.67" stroke="rgba(58, 124, 195, 0.3)"></path><path d="M357.33 56 a2.67 2.67 0 1 0 5.34 0 a2.67 2.67 0 1 0 -5.34 0zM325.33 24 a2.67 2.67 0 1 0 5.34 0 a2.67 2.67 0 1 0 -5.34 0z" fill="rgba(58, 124, 195, 0.3)"></path><path d="M760 24L728 56L728 72" stroke-width="2.67" stroke="rgba(58, 124, 195, 0.3)"></path><path d="M757.33 24 a2.67 2.67 0 1 0 5.34 0 a2.67 2.67 0 1 0 -5.34 0zM725.33 72 a2.67 2.67 0 1 0 5.34 0 a2.67 2.67 0 1 0 -5.34 0z" fill="rgba(58, 124, 195, 0.3)"></path><path d="M344 56L344 72L328 88" stroke-width="2.67" stroke="rgba(58, 124, 195, 0.3)"></path><path d="M341.33 56 a2.67 2.67 0 1 0 5.34 0 a2.67 2.67 0 1 0 -5.34 0zM325.33 88 a2.67 2.67 0 1 0 5.34 0 a2.67 2.67 0 1 0 -5.34 0z" fill="rgba(58, 124, 195, 0.3)"></path><path d="M440 328L456 344L472 344L504 312" stroke-width="2.67" stroke="rgba(58, 124, 195, 0.3)"></path><path d="M437.33 328 a2.67 2.67 0 1 0 5.34 0 a2.67 2.67 0 1 0 -5.34 0zM501.33 312 a2.67 2.67 0 1 0 5.34 0 a2.67 2.67 0 1 0 -5.34 0z" fill="rgba(58, 124, 195, 0.3)"></path><path d="M1224 264L1144 264L1128 248" stroke-width="2.67" stroke="rgba(58, 124, 195, 0.3)"></path><path d="M1221.33 264 a2.67 2.67 0 1 0 5.34 0 a2.67 2.67 0 1 0 -5.34 0zM1125.33 248 a2.67 2.67 0 1 0 5.34 0 a2.67 2.67 0 1 0 -5.34 0z" fill="rgba(58, 124, 195, 0.3)"></path><path d="M56 264L56 216" stroke-width="2.67" stroke="rgba(58, 124, 195, 0.3)"></path><path d="M53.33 264 a2.67 2.67 0 1 0 5.34 0 a2.67 2.67 0 1 0 -5.34 0zM53.33 216 a2.67 2.67 0 1 0 5.34 0 a2.67 2.67 0 1 0 -5.34 0z" fill="rgba(58, 124, 195, 0.3)"></path><path d="M1032 24L1112 24" stroke-width="2.67" stroke="rgba(58, 124, 195, 0.3)"></path><path d="M1029.33 24 a2.67 2.67 0 1 0 5.34 0 a2.67 2.67 0 1 0 -5.34 0zM1109.33 24 a2.67 2.67 0 1 0 5.34 0 a2.67 2.67 0 1 0 -5.34 0z" fill="rgba(58, 124, 195, 0.3)"></path><path d="M1240 296L1176 296" stroke-width="2.67" stroke="rgba(58, 124, 195, 0.3)"></path><path d="M1237.33 296 a2.67 2.67 0 1 0 5.34 0 a2.67 2.67 0 1 0 -5.34 0zM1173.33 296 a2.67 2.67 0 1 0 5.34 0 a2.67 2.67 0 1 0 -5.34 0z" fill="rgba(58, 124, 195, 0.3)"></path><path d="M1288 264L1320 296" stroke-width="2.67" stroke="rgba(58, 124, 195, 0.3)"></path><path d="M1285.33 264 a2.67 2.67 0 1 0 5.34 0 a2.67 2.67 0 1 0 -5.34 0zM1317.33 296 a2.67 2.67 0 1 0 5.34 0 a2.67 2.67 0 1 0 -5.34 0z" fill="rgba(58, 124, 195, 0.3)"></path><path d="M648 472L648 520" stroke-width="2.67" stroke="rgba(58, 124, 195, 0.3)"></path><path d="M645.33 472 a2.67 2.67 0 1 0 5.34 0 a2.67 2.67 0 1 0 -5.34 0zM645.33 520 a2.67 2.67 0 1 0 5.34 0 a2.67 2.67 0 1 0 -5.34 0z" fill="rgba(58, 124, 195, 0.3)"></path><path d="M520 360L504 344L504 328" stroke-width="2.67" stroke="rgba(58, 124, 195, 0.3)"></path><path d="M517.33 360 a2.67 2.67 0 1 0 5.34 0 a2.67 2.67 0 1 0 -5.34 0zM501.33 328 a2.67 2.67 0 1 0 5.34 0 a2.67 2.67 0 1 0 -5.34 0z" fill="rgba(58, 124, 195, 0.3)"></path><path d="M536 360L520 344L520 328" stroke-width="2.67" stroke="rgba(58, 124, 195, 0.3)"></path><path d="M533.33 360 a2.67 2.67 0 1 0 5.34 0 a2.67 2.67 0 1 0 -5.34 0zM517.33 328 a2.67 2.67 0 1 0 5.34 0 a2.67 2.67 0 1 0 -5.34 0z" fill="rgba(58, 124, 195, 0.3)"></path><path d="M840 152L840 168L856 184L888 184L904 200" stroke-width="2.67" stroke="rgba(58, 124, 195, 0.3)"></path><path d="M837.33 152 a2.67 2.67 0 1 0 5.34 0 a2.67 2.67 0 1 0 -5.34 0zM901.33 200 a2.67 2.67 0 1 0 5.34 0 a2.67 2.67 0 1 0 -5.34 0z" fill="rgba(58, 124, 195, 0.3)"></path><path d="M728 552L744 536L744 520" stroke-width="2.67" stroke="rgba(58, 124, 195, 0.3)"></path><path d="M725.33 552 a2.67 2.67 0 1 0 5.34 0 a2.67 2.67 0 1 0 -5.34 0zM741.33 520 a2.67 2.67 0 1 0 5.34 0 a2.67 2.67 0 1 0 -5.34 0z" fill="rgba(58, 124, 195, 0.3)"></path><path d="M1000 168L1016 168L1032 152L1048 152" stroke-width="2.67" stroke="rgba(58, 124, 195, 0.3)"></path><path d="M997.33 168 a2.67 2.67 0 1 0 5.34 0 a2.67 2.67 0 1 0 -5.34 0zM1045.33 152 a2.67 2.67 0 1 0 5.34 0 a2.67 2.67 0 1 0 -5.34 0z" fill="rgba(58, 124, 195, 0.3)"></path><path d="M1352 88L1352 120" stroke-width="2.67" stroke="rgba(58, 124, 195, 0.3)"></path><path d="M1349.33 88 a2.67 2.67 0 1 0 5.34 0 a2.67 2.67 0 1 0 -5.34 0zM1349.33 120 a2.67 2.67 0 1 0 5.34 0 a2.67 2.67 0 1 0 -5.34 0z" fill="rgba(58, 124, 195, 0.3)"></path><path d="M728 296L760 328L776 328" stroke-width="2.67" stroke="rgba(58, 124, 195, 0.3)"></path><path d="M725.33 296 a2.67 2.67 0 1 0 5.34 0 a2.67 2.67 0 1 0 -5.34 0zM773.33 328 a2.67 2.67 0 1 0 5.34 0 a2.67 2.67 0 1 0 -5.34 0z" fill="rgba(58, 124, 195, 0.3)"></path><path d="M504 216L504 168L536 136L616 136L632 152" stroke-width="2.67" stroke="rgba(58, 124, 195, 0.3)"></path><path d="M501.33 216 a2.67 2.67 0 1 0 5.34 0 a2.67 2.67 0 1 0 -5.34 0zM629.33 152 a2.67 2.67 0 1 0 5.34 0 a2.67 2.67 0 1 0 -5.34 0z" fill="rgba(58, 124, 195, 0.3)"></path><path d="M552 408L568 408L584 424L584 440" stroke-width="2.67" stroke="rgba(58, 124, 195, 0.3)"></path><path d="M549.33 408 a2.67 2.67 0 1 0 5.34 0 a2.67 2.67 0 1 0 -5.34 0zM581.33 440 a2.67 2.67 0 1 0 5.34 0 a2.67 2.67 0 1 0 -5.34 0z" fill="rgba(58, 124, 195, 0.3)"></path><path d="M1336 168L1320 168L1304 152L1304 120" stroke-width="2.67" stroke="rgba(58, 124, 195, 0.3)"></path><path d="M1333.33 168 a2.67 2.67 0 1 0 5.34 0 a2.67 2.67 0 1 0 -5.34 0zM1301.33 120 a2.67 2.67 0 1 0 5.34 0 a2.67 2.67 0 1 0 -5.34 0z" fill="rgba(58, 124, 195, 0.3)"></path><path d="M1272 248L1320 248L1336 264L1336 280" stroke-width="2.67" stroke="rgba(58, 124, 195, 0.3)"></path><path d="M1269.33 248 a2.67 2.67 0 1 0 5.34 0 a2.67 2.67 0 1 0 -5.34 0zM1333.33 280 a2.67 2.67 0 1 0 5.34 0 a2.67 2.67 0 1 0 -5.34 0z" fill="rgba(58, 124, 195, 0.3)"></path><path d="M328 440L344 424L408 424" stroke-width="2.67" stroke="rgba(58, 124, 195, 0.3)"></path><path d="M325.33 440 a2.67 2.67 0 1 0 5.34 0 a2.67 2.67 0 1 0 -5.34 0zM405.33 424 a2.67 2.67 0 1 0 5.34 0 a2.67 2.67 0 1 0 -5.34 0z" fill="rgba(58, 124, 195, 0.3)"></path><path d="M488 120L520 120" stroke-width="2.67" stroke="rgba(58, 124, 195, 0.3)"></path><path d="M485.33 120 a2.67 2.67 0 1 0 5.34 0 a2.67 2.67 0 1 0 -5.34 0zM517.33 120 a2.67 2.67 0 1 0 5.34 0 a2.67 2.67 0 1 0 -5.34 0z" fill="rgba(58, 124, 195, 0.3)"></path><path d="M1416 376L1368 376" stroke-width="2.67" stroke="rgba(58, 124, 195, 0.3)"></path><path d="M1413.33 376 a2.67 2.67 0 1 0 5.34 0 a2.67 2.67 0 1 0 -5.34 0zM1365.33 376 a2.67 2.67 0 1 0 5.34 0 a2.67 2.67 0 1 0 -5.34 0z" fill="rgba(58, 124, 195, 0.3)"></path><path d="M792 72L792 8" stroke-width="2.67" stroke="rgba(58, 124, 195, 0.3)"></path><path d="M789.33 72 a2.67 2.67 0 1 0 5.34 0 a2.67 2.67 0 1 0 -5.34 0zM789.33 8 a2.67 2.67 0 1 0 5.34 0 a2.67 2.67 0 1 0 -5.34 0z" fill="rgba(58, 124, 195, 0.3)"></path><path d="M504 376L504 408L536 440L568 440" stroke-width="2.67" stroke="rgba(58, 124, 195, 0.3)"></path><path d="M501.33 376 a2.67 2.67 0 1 0 5.34 0 a2.67 2.67 0 1 0 -5.34 0zM565.33 440 a2.67 2.67 0 1 0 5.34 0 a2.67 2.67 0 1 0 -5.34 0z" fill="rgba(58, 124, 195, 0.3)"></path><path d="M1400 344L1336 344" stroke-width="2.67" stroke="rgba(58, 124, 195, 0.3)"></path><path d="M1397.33 344 a2.67 2.67 0 1 0 5.34 0 a2.67 2.67 0 1 0 -5.34 0zM1333.33 344 a2.67 2.67 0 1 0 5.34 0 a2.67 2.67 0 1 0 -5.34 0z" fill="rgba(58, 124, 195, 0.3)"></path><path d="M1368 504L1368 456" stroke-width="2.67" stroke="rgba(58, 124, 195, 0.3)"></path><path d="M1365.33 504 a2.67 2.67 0 1 0 5.34 0 a2.67 2.67 0 1 0 -5.34 0zM1365.33 456 a2.67 2.67 0 1 0 5.34 0 a2.67 2.67 0 1 0 -5.34 0z" fill="rgba(58, 124, 195, 0.3)"></path><path d="M1016 280L968 280" stroke-width="2.67" stroke="rgba(58, 124, 195, 0.3)"></path><path d="M1013.33 280 a2.67 2.67 0 1 0 5.34 0 a2.67 2.67 0 1 0 -5.34 0zM965.33 280 a2.67 2.67 0 1 0 5.34 0 a2.67 2.67 0 1 0 -5.34 0z" fill="rgba(58, 124, 195, 0.3)"></path><path d="M808 440L792 440L776 424" stroke-width="2.67" stroke="rgba(58, 124, 195, 0.3)"></path><path d="M805.33 440 a2.67 2.67 0 1 0 5.34 0 a2.67 2.67 0 1 0 -5.34 0zM773.33 424 a2.67 2.67 0 1 0 5.34 0 a2.67 2.67 0 1 0 -5.34 0z" fill="rgba(58, 124, 195, 0.3)"></path><path d="M1096 56L1048 56L1032 40" stroke-width="2.67" stroke="rgba(58, 124, 195, 0.3)"></path><path d="M1093.33 56 a2.67 2.67 0 1 0 5.34 0 a2.67 2.67 0 1 0 -5.34 0zM1029.33 40 a2.67 2.67 0 1 0 5.34 0 a2.67 2.67 0 1 0 -5.34 0z" fill="rgba(58, 124, 195, 0.3)"></path><path d="M200 520L200 472L216 456" stroke-width="2.67" stroke="rgba(58, 124, 195, 0.3)"></path><path d="M197.33 520 a2.67 2.67 0 1 0 5.34 0 a2.67 2.67 0 1 0 -5.34 0zM213.33 456 a2.67 2.67 0 1 0 5.34 0 a2.67 2.67 0 1 0 -5.34 0z" fill="rgba(58, 124, 195, 0.3)"></path><path d="M1032 360L952 360" stroke-width="2.67" stroke="rgba(58, 124, 195, 0.3)"></path><path d="M1029.33 360 a2.67 2.67 0 1 0 5.34 0 a2.67 2.67 0 1 0 -5.34 0zM949.33 360 a2.67 2.67 0 1 0 5.34 0 a2.67 2.67 0 1 0 -5.34 0z" fill="rgba(58, 124, 195, 0.3)"></path><path d="M616 328L584 296L568 296" stroke-width="2.67" stroke="rgba(58, 124, 195, 0.3)"></path><path d="M613.33 328 a2.67 2.67 0 1 0 5.34 0 a2.67 2.67 0 1 0 -5.34 0zM565.33 296 a2.67 2.67 0 1 0 5.34 0 a2.67 2.67 0 1 0 -5.34 0z" fill="rgba(58, 124, 195, 0.3)"></path><path d="M1144 232L1160 216L1176 216L1208 248" stroke-width="2.67" stroke="rgba(58, 124, 195, 0.3)"></path><path d="M1141.33 232 a2.67 2.67 0 1 0 5.34 0 a2.67 2.67 0 1 0 -5.34 0zM1205.33 248 a2.67 2.67 0 1 0 5.34 0 a2.67 2.67 0 1 0 -5.34 0z" fill="rgba(58, 124, 195, 0.3)"></path><path d="M40 552L8 552" stroke-width="2.67" stroke="rgba(58, 124, 195, 0.3)"></path><path d="M37.33 552 a2.67 2.67 0 1 0 5.34 0 a2.67 2.67 0 1 0 -5.34 0zM5.33 552 a2.67 2.67 0 1 0 5.34 0 a2.67 2.67 0 1 0 -5.34 0z" fill="rgba(58, 124, 195, 0.3)"></path><path d="M216 488L216 552" stroke-width="2.67" stroke="rgba(58, 124, 195, 0.3)"></path><path d="M213.33 488 a2.67 2.67 0 1 0 5.34 0 a2.67 2.67 0 1 0 -5.34 0zM213.33 552 a2.67 2.67 0 1 0 5.34 0 a2.67 2.67 0 1 0 -5.34 0z" fill="rgba(58, 124, 195, 0.3)"></path><path d="M1368 40L1368 8" stroke-width="2.67" stroke="rgba(58, 124, 195, 0.3)"></path><path d="M1365.33 40 a2.67 2.67 0 1 0 5.34 0 a2.67 2.67 0 1 0 -5.34 0zM1365.33 8 a2.67 2.67 0 1 0 5.34 0 a2.67 2.67 0 1 0 -5.34 0z" fill="rgba(58, 124, 195, 0.3)"></path><path d="M40 200L40 152" stroke-width="2.67" stroke="rgba(58, 124, 195, 0.3)"></path><path d="M37.33 200 a2.67 2.67 0 1 0 5.34 0 a2.67 2.67 0 1 0 -5.34 0zM37.33 152 a2.67 2.67 0 1 0 5.34 0 a2.67 2.67 0 1 0 -5.34 0z" fill="rgba(58, 124, 195, 0.3)"></path><path d="M1304 472L1304 520" stroke-width="2.67" stroke="rgba(58, 124, 195, 0.3)"></path><path d="M1301.33 472 a2.67 2.67 0 1 0 5.34 0 a2.67 2.67 0 1 0 -5.34 0zM1301.33 520 a2.67 2.67 0 1 0 5.34 0 a2.67 2.67 0 1 0 -5.34 0z" fill="rgba(58, 124, 195, 0.3)"></path><path d="M120 56L136 40L264 40" stroke-width="2.67" stroke="rgba(58, 124, 195, 0.3)"></path><path d="M117.33 56 a2.67 2.67 0 1 0 5.34 0 a2.67 2.67 0 1 0 -5.34 0zM261.33 40 a2.67 2.67 0 1 0 5.34 0 a2.67 2.67 0 1 0 -5.34 0z" fill="rgba(58, 124, 195, 0.3)"></path><path d="M1144 248L1160 248L1176 232" stroke-width="2.67" stroke="rgba(58, 124, 195, 0.3)"></path><path d="M1141.33 248 a2.67 2.67 0 1 0 5.34 0 a2.67 2.67 0 1 0 -5.34 0zM1173.33 232 a2.67 2.67 0 1 0 5.34 0 a2.67 2.67 0 1 0 -5.34 0z" fill="rgba(58, 124, 195, 0.3)"></path><path d="M520 216L552 216" stroke-width="2.67" stroke="rgba(58, 124, 195, 0.3)"></path><path d="M517.33 216 a2.67 2.67 0 1 0 5.34 0 a2.67 2.67 0 1 0 -5.34 0zM549.33 216 a2.67 2.67 0 1 0 5.34 0 a2.67 2.67 0 1 0 -5.34 0z" fill="rgba(58, 124, 195, 0.3)"></path><path d="M824 104L824 88L840 72" stroke-width="2.67" stroke="rgba(58, 124, 195, 0.3)"></path><path d="M821.33 104 a2.67 2.67 0 1 0 5.34 0 a2.67 2.67 0 1 0 -5.34 0zM837.33 72 a2.67 2.67 0 1 0 5.34 0 a2.67 2.67 0 1 0 -5.34 0z" fill="rgba(58, 124, 195, 0.3)"></path><path d="M1048 328L1032 312L1016 312" stroke-width="2.67" stroke="rgba(58, 124, 195, 0.3)"></path><path d="M1045.33 328 a2.67 2.67 0 1 0 5.34 0 a2.67 2.67 0 1 0 -5.34 0zM1013.33 312 a2.67 2.67 0 1 0 5.34 0 a2.67 2.67 0 1 0 -5.34 0z" fill="rgba(58, 124, 195, 0.3)"></path><path d="M440 184L440 168L376 104" stroke-width="2.67" stroke="rgba(58, 124, 195, 0.3)"></path><path d="M437.33 184 a2.67 2.67 0 1 0 5.34 0 a2.67 2.67 0 1 0 -5.34 0zM373.33 104 a2.67 2.67 0 1 0 5.34 0 a2.67 2.67 0 1 0 -5.34 0z" fill="rgba(58, 124, 195, 0.3)"></path><path d="M392 488L392 440" stroke-width="2.67" stroke="rgba(58, 124, 195, 0.3)"></path><path d="M389.33 488 a2.67 2.67 0 1 0 5.34 0 a2.67 2.67 0 1 0 -5.34 0zM389.33 440 a2.67 2.67 0 1 0 5.34 0 a2.67 2.67 0 1 0 -5.34 0z" fill="rgba(58, 124, 195, 0.3)"></path><path d="M1128 184L1128 216" stroke-width="2.67" stroke="rgba(58, 124, 195, 0.3)"></path><path d="M1125.33 184 a2.67 2.67 0 1 0 5.34 0 a2.67 2.67 0 1 0 -5.34 0zM1125.33 216 a2.67 2.67 0 1 0 5.34 0 a2.67 2.67 0 1 0 -5.34 0z" fill="rgba(58, 124, 195, 0.3)"></path><path d="M280 328L264 344L232 344" stroke-width="2.67" stroke="rgba(58, 124, 195, 0.3)"></path><path d="M277.33 328 a2.67 2.67 0 1 0 5.34 0 a2.67 2.67 0 1 0 -5.34 0zM229.33 344 a2.67 2.67 0 1 0 5.34 0 a2.67 2.67 0 1 0 -5.34 0z" fill="rgba(58, 124, 195, 0.3)"></path><path d="M552 184L552 168L536 152" stroke-width="2.67" stroke="rgba(58, 124, 195, 0.3)"></path><path d="M549.33 184 a2.67 2.67 0 1 0 5.34 0 a2.67 2.67 0 1 0 -5.34 0zM533.33 152 a2.67 2.67 0 1 0 5.34 0 a2.67 2.67 0 1 0 -5.34 0z" fill="rgba(58, 124, 195, 0.3)"></path><path d="M488 456L488 488" stroke-width="2.67" stroke="rgba(58, 124, 195, 0.3)"></path><path d="M485.33 456 a2.67 2.67 0 1 0 5.34 0 a2.67 2.67 0 1 0 -5.34 0zM485.33 488 a2.67 2.67 0 1 0 5.34 0 a2.67 2.67 0 1 0 -5.34 0z" fill="rgba(58, 124, 195, 0.3)"></path><path d="M1400 24L1400 56" stroke-width="2.67" stroke="rgba(58, 124, 195, 0.3)"></path><path d="M1397.33 24 a2.67 2.67 0 1 0 5.34 0 a2.67 2.67 0 1 0 -5.34 0zM1397.33 56 a2.67 2.67 0 1 0 5.34 0 a2.67 2.67 0 1 0 -5.34 0z" fill="rgba(58, 124, 195, 0.3)"></path><path d="M296 552L264 552" stroke-width="2.67" stroke="rgba(58, 124, 195, 0.3)"></path><path d="M293.33 552 a2.67 2.67 0 1 0 5.34 0 a2.67 2.67 0 1 0 -5.34 0zM261.33 552 a2.67 2.67 0 1 0 5.34 0 a2.67 2.67 0 1 0 -5.34 0z" fill="rgba(58, 124, 195, 0.3)"></path><path d="M1224 88L1240 72L1240 24" stroke-width="2.67" stroke="rgba(58, 124, 195, 0.3)"></path><path d="M1221.33 88 a2.67 2.67 0 1 0 5.34 0 a2.67 2.67 0 1 0 -5.34 0zM1237.33 24 a2.67 2.67 0 1 0 5.34 0 a2.67 2.67 0 1 0 -5.34 0z" fill="rgba(58, 124, 195, 0.3)"></path><path d="M1112 72L1112 88L1096 104L1096 120" stroke-width="2.67" stroke="rgba(58, 124, 195, 0.3)"></path><path d="M1109.33 72 a2.67 2.67 0 1 0 5.34 0 a2.67 2.67 0 1 0 -5.34 0zM1093.33 120 a2.67 2.67 0 1 0 5.34 0 a2.67 2.67 0 1 0 -5.34 0z" fill="rgba(58, 124, 195, 0.3)"></path><path d="M360 504L376 504L408 536" stroke-width="2.67" stroke="rgba(58, 124, 195, 0.3)"></path><path d="M357.33 504 a2.67 2.67 0 1 0 5.34 0 a2.67 2.67 0 1 0 -5.34 0zM405.33 536 a2.67 2.67 0 1 0 5.34 0 a2.67 2.67 0 1 0 -5.34 0z" fill="rgba(58, 124, 195, 0.3)"></path><path d="M1160 8L1176 24L1192 24L1208 8" stroke-width="2.67" stroke="rgba(58, 124, 195, 0.3)"></path><path d="M1157.33 8 a2.67 2.67 0 1 0 5.34 0 a2.67 2.67 0 1 0 -5.34 0zM1205.33 8 a2.67 2.67 0 1 0 5.34 0 a2.67 2.67 0 1 0 -5.34 0z" fill="rgba(58, 124, 195, 0.3)"></path><path d="M936 472L984 520" stroke-width="2.67" stroke="rgba(58, 124, 195, 0.3)"></path><path d="M933.33 472 a2.67 2.67 0 1 0 5.34 0 a2.67 2.67 0 1 0 -5.34 0zM981.33 520 a2.67 2.67 0 1 0 5.34 0 a2.67 2.67 0 1 0 -5.34 0z" fill="rgba(58, 124, 195, 0.3)"></path><path d="M136 184L104 216" stroke-width="2.67" stroke="rgba(58, 124, 195, 0.3)"></path><path d="M133.33 184 a2.67 2.67 0 1 0 5.34 0 a2.67 2.67 0 1 0 -5.34 0zM101.33 216 a2.67 2.67 0 1 0 5.34 0 a2.67 2.67 0 1 0 -5.34 0z" fill="rgba(58, 124, 195, 0.3)"></path><path d="M1272 376L1272 440" stroke-width="2.67" stroke="rgba(58, 124, 195, 0.3)"></path><path d="M1269.33 376 a2.67 2.67 0 1 0 5.34 0 a2.67 2.67 0 1 0 -5.34 0zM1269.33 440 a2.67 2.67 0 1 0 5.34 0 a2.67 2.67 0 1 0 -5.34 0z" fill="rgba(58, 124, 195, 0.3)"></path><path d="M1432 296L1416 280L1416 248L1432 232" stroke-width="2.67" stroke="rgba(58, 124, 195, 0.3)"></path><path d="M1429.33 296 a2.67 2.67 0 1 0 5.34 0 a2.67 2.67 0 1 0 -5.34 0zM1429.33 232 a2.67 2.67 0 1 0 5.34 0 a2.67 2.67 0 1 0 -5.34 0z" fill="rgba(58, 124, 195, 0.3)"></path><path d="M1432 392L1384 392" stroke-width="2.67" stroke="rgba(58, 124, 195, 0.3)"></path><path d="M1429.33 392 a2.67 2.67 0 1 0 5.34 0 a2.67 2.67 0 1 0 -5.34 0zM1381.33 392 a2.67 2.67 0 1 0 5.34 0 a2.67 2.67 0 1 0 -5.34 0z" fill="rgba(58, 124, 195, 0.3)"></path><path d="M216 472L264 520" stroke-width="2.67" stroke="rgba(58, 124, 195, 0.3)"></path><path d="M213.33 472 a2.67 2.67 0 1 0 5.34 0 a2.67 2.67 0 1 0 -5.34 0zM261.33 520 a2.67 2.67 0 1 0 5.34 0 a2.67 2.67 0 1 0 -5.34 0z" fill="rgba(58, 124, 195, 0.3)"></path><path d="M200 360L184 376L184 424" stroke-width="2.67" stroke="rgba(58, 124, 195, 0.3)"></path><path d="M197.33 360 a2.67 2.67 0 1 0 5.34 0 a2.67 2.67 0 1 0 -5.34 0zM181.33 424 a2.67 2.67 0 1 0 5.34 0 a2.67 2.67 0 1 0 -5.34 0z" fill="rgba(58, 124, 195, 0.3)"></path><path d="M1352 168L1416 104" stroke-width="2.67" stroke="rgba(58, 124, 195, 0.3)"></path><path d="M1349.33 168 a2.67 2.67 0 1 0 5.34 0 a2.67 2.67 0 1 0 -5.34 0zM1413.33 104 a2.67 2.67 0 1 0 5.34 0 a2.67 2.67 0 1 0 -5.34 0z" fill="rgba(58, 124, 195, 0.3)"></path><path d="M568 152L616 152" stroke-width="2.67" stroke="rgba(58, 124, 195, 0.3)"></path><path d="M565.33 152 a2.67 2.67 0 1 0 5.34 0 a2.67 2.67 0 1 0 -5.34 0zM613.33 152 a2.67 2.67 0 1 0 5.34 0 a2.67 2.67 0 1 0 -5.34 0z" fill="rgba(58, 124, 195, 0.3)"></path><path d="M1096 8L1064 8" stroke-width="2.67" stroke="rgba(58, 124, 195, 0.3)"></path><path d="M1093.33 8 a2.67 2.67 0 1 0 5.34 0 a2.67 2.67 0 1 0 -5.34 0zM1061.33 8 a2.67 2.67 0 1 0 5.34 0 a2.67 2.67 0 1 0 -5.34 0z" fill="rgba(58, 124, 195, 0.3)"></path><path d="M136 72L200 72" stroke-width="2.67" stroke="rgba(58, 124, 195, 0.3)"></path><path d="M133.33 72 a2.67 2.67 0 1 0 5.34 0 a2.67 2.67 0 1 0 -5.34 0zM197.33 72 a2.67 2.67 0 1 0 5.34 0 a2.67 2.67 0 1 0 -5.34 0z" fill="rgba(58, 124, 195, 0.3)"></path><path d="M88 296L88 248" stroke-width="2.67" stroke="rgba(58, 124, 195, 0.3)"></path><path d="M85.33 296 a2.67 2.67 0 1 0 5.34 0 a2.67 2.67 0 1 0 -5.34 0zM85.33 248 a2.67 2.67 0 1 0 5.34 0 a2.67 2.67 0 1 0 -5.34 0z" fill="rgba(58, 124, 195, 0.3)"></path><path d="M408 216L392 200L392 184" stroke-width="2.67" stroke="rgba(58, 124, 195, 0.3)"></path><path d="M405.33 216 a2.67 2.67 0 1 0 5.34 0 a2.67 2.67 0 1 0 -5.34 0zM389.33 184 a2.67 2.67 0 1 0 5.34 0 a2.67 2.67 0 1 0 -5.34 0z" fill="rgba(58, 124, 195, 0.3)"></path><path d="M328 392L312 408L312 424" stroke-width="2.67" stroke="rgba(58, 124, 195, 0.3)"></path><path d="M325.33 392 a2.67 2.67 0 1 0 5.34 0 a2.67 2.67 0 1 0 -5.34 0zM309.33 424 a2.67 2.67 0 1 0 5.34 0 a2.67 2.67 0 1 0 -5.34 0z" fill="rgba(58, 124, 195, 0.3)"></path><path d="M440 24L488 24" stroke-width="2.67" stroke="rgba(58, 124, 195, 0.3)"></path><path d="M437.33 24 a2.67 2.67 0 1 0 5.34 0 a2.67 2.67 0 1 0 -5.34 0zM485.33 24 a2.67 2.67 0 1 0 5.34 0 a2.67 2.67 0 1 0 -5.34 0z" fill="rgba(58, 124, 195, 0.3)"></path><path d="M1192 344L1160 344" stroke-width="2.67" stroke="rgba(58, 124, 195, 0.3)"></path><path d="M1189.33 344 a2.67 2.67 0 1 0 5.34 0 a2.67 2.67 0 1 0 -5.34 0zM1157.33 344 a2.67 2.67 0 1 0 5.34 0 a2.67 2.67 0 1 0 -5.34 0z" fill="rgba(58, 124, 195, 0.3)"></path><path d="M344 344L328 328L296 328L280 344" stroke-width="2.67" stroke="rgba(58, 124, 195, 0.3)"></path><path d="M341.33 344 a2.67 2.67 0 1 0 5.34 0 a2.67 2.67 0 1 0 -5.34 0zM277.33 344 a2.67 2.67 0 1 0 5.34 0 a2.67 2.67 0 1 0 -5.34 0z" fill="rgba(58, 124, 195, 0.3)"></path><path d="M424 488L424 504L408 520" stroke-width="2.67" stroke="rgba(58, 124, 195, 0.3)"></path><path d="M421.33 488 a2.67 2.67 0 1 0 5.34 0 a2.67 2.67 0 1 0 -5.34 0zM405.33 520 a2.67 2.67 0 1 0 5.34 0 a2.67 2.67 0 1 0 -5.34 0z" fill="rgba(58, 124, 195, 0.3)"></path><path d="M1256 408L1256 392L1240 376L1224 376" stroke-width="2.67" stroke="rgba(58, 124, 195, 0.3)"></path><path d="M1253.33 408 a2.67 2.67 0 1 0 5.34 0 a2.67 2.67 0 1 0 -5.34 0zM1221.33 376 a2.67 2.67 0 1 0 5.34 0 a2.67 2.67 0 1 0 -5.34 0z" fill="rgba(58, 124, 195, 0.3)"></path><path d="M1192 136L1176 152L1160 152L1144 136L1144 120L1160 104" stroke-width="2.67" stroke="rgba(58, 124, 195, 0.3)"></path><path d="M1189.33 136 a2.67 2.67 0 1 0 5.34 0 a2.67 2.67 0 1 0 -5.34 0zM1157.33 104 a2.67 2.67 0 1 0 5.34 0 a2.67 2.67 0 1 0 -5.34 0z" fill="rgba(58, 124, 195, 0.3)"></path><path d="M648 264L648 280L664 296" stroke-width="2.67" stroke="rgba(58, 124, 195, 0.3)"></path><path d="M645.33 264 a2.67 2.67 0 1 0 5.34 0 a2.67 2.67 0 1 0 -5.34 0zM661.33 296 a2.67 2.67 0 1 0 5.34 0 a2.67 2.67 0 1 0 -5.34 0z" fill="rgba(58, 124, 195, 0.3)"></path><path d="M1336 72L1320 56L1320 40" stroke-width="2.67" stroke="rgba(58, 124, 195, 0.3)"></path><path d="M1333.33 72 a2.67 2.67 0 1 0 5.34 0 a2.67 2.67 0 1 0 -5.34 0zM1317.33 40 a2.67 2.67 0 1 0 5.34 0 a2.67 2.67 0 1 0 -5.34 0z" fill="rgba(58, 124, 195, 0.3)"></path><path d="M568 56L568 88" stroke-width="2.67" stroke="rgba(58, 124, 195, 0.3)"></path><path d="M565.33 56 a2.67 2.67 0 1 0 5.34 0 a2.67 2.67 0 1 0 -5.34 0zM565.33 88 a2.67 2.67 0 1 0 5.34 0 a2.67 2.67 0 1 0 -5.34 0z" fill="rgba(58, 124, 195, 0.3)"></path><path d="M648 40L680 40" stroke-width="2.67" stroke="rgba(58, 124, 195, 0.3)"></path><path d="M645.33 40 a2.67 2.67 0 1 0 5.34 0 a2.67 2.67 0 1 0 -5.34 0zM677.33 40 a2.67 2.67 0 1 0 5.34 0 a2.67 2.67 0 1 0 -5.34 0z" fill="rgba(58, 124, 195, 0.3)"></path><path d="M792 552L760 552" stroke-width="2.67" stroke="rgba(58, 124, 195, 0.3)"></path><path d="M789.33 552 a2.67 2.67 0 1 0 5.34 0 a2.67 2.67 0 1 0 -5.34 0zM757.33 552 a2.67 2.67 0 1 0 5.34 0 a2.67 2.67 0 1 0 -5.34 0z" fill="rgba(58, 124, 195, 0.3)"></path><path d="M1320 504L1320 472" stroke-width="2.67" stroke="rgba(58, 124, 195, 0.3)"></path><path d="M1317.33 504 a2.67 2.67 0 1 0 5.34 0 a2.67 2.67 0 1 0 -5.34 0zM1317.33 472 a2.67 2.67 0 1 0 5.34 0 a2.67 2.67 0 1 0 -5.34 0z" fill="rgba(58, 124, 195, 0.3)"></path><path d="M1048 360L1064 344L1080 344" stroke-width="2.67" stroke="rgba(58, 124, 195, 0.3)"></path><path d="M1045.33 360 a2.67 2.67 0 1 0 5.34 0 a2.67 2.67 0 1 0 -5.34 0zM1077.33 344 a2.67 2.67 0 1 0 5.34 0 a2.67 2.67 0 1 0 -5.34 0z" fill="rgba(58, 124, 195, 0.3)"></path><path d="M552 88L552 56" stroke-width="2.67" stroke="rgba(58, 124, 195, 0.3)"></path><path d="M549.33 88 a2.67 2.67 0 1 0 5.34 0 a2.67 2.67 0 1 0 -5.34 0zM549.33 56 a2.67 2.67 0 1 0 5.34 0 a2.67 2.67 0 1 0 -5.34 0z" fill="rgba(58, 124, 195, 0.3)"></path><path d="M1432 408L1400 408" stroke-width="2.67" stroke="rgba(58, 124, 195, 0.3)"></path><path d="M1429.33 408 a2.67 2.67 0 1 0 5.34 0 a2.67 2.67 0 1 0 -5.34 0zM1397.33 408 a2.67 2.67 0 1 0 5.34 0 a2.67 2.67 0 1 0 -5.34 0z" fill="rgba(58, 124, 195, 0.3)"></path><path d="M1096 72L1080 88L1064 88" stroke-width="2.67" stroke="rgba(58, 124, 195, 0.3)"></path><path d="M1093.33 72 a2.67 2.67 0 1 0 5.34 0 a2.67 2.67 0 1 0 -5.34 0zM1061.33 88 a2.67 2.67 0 1 0 5.34 0 a2.67 2.67 0 1 0 -5.34 0z" fill="rgba(58, 124, 195, 0.3)"></path><path d="M808 8L808 24L824 40" stroke-width="2.67" stroke="rgba(58, 124, 195, 0.3)"></path><path d="M805.33 8 a2.67 2.67 0 1 0 5.34 0 a2.67 2.67 0 1 0 -5.34 0zM821.33 40 a2.67 2.67 0 1 0 5.34 0 a2.67 2.67 0 1 0 -5.34 0z" fill="rgba(58, 124, 195, 0.3)"></path><path d="M280 8L248 8" stroke-width="2.67" stroke="rgba(58, 124, 195, 0.3)"></path><path d="M277.33 8 a2.67 2.67 0 1 0 5.34 0 a2.67 2.67 0 1 0 -5.34 0zM245.33 8 a2.67 2.67 0 1 0 5.34 0 a2.67 2.67 0 1 0 -5.34 0z" fill="rgba(58, 124, 195, 0.3)"></path><path d="M1240 104L1240 136" stroke-width="2.67" stroke="rgba(58, 124, 195, 0.3)"></path><path d="M1237.33 104 a2.67 2.67 0 1 0 5.34 0 a2.67 2.67 0 1 0 -5.34 0zM1237.33 136 a2.67 2.67 0 1 0 5.34 0 a2.67 2.67 0 1 0 -5.34 0z" fill="rgba(58, 124, 195, 0.3)"></path></g></g><defs><mask id="SvgjsMask1060"><rect width="1440" height="560" fill="#ffffff"></rect></mask></defs></svg>