<svg xmlns="http://www.w3.org/2000/svg" version="1.1" xmlns:xlink="http://www.w3.org/1999/xlink" xmlns:svgjs="http://svgjs.com/svgjs" width="1490" height="614" preserveAspectRatio="none" viewBox="0 0 1490 614"><g mask="url(&quot;#SvgjsMask1291&quot;)" fill="none"><path d="M-104.89 557.81L-104.89 557.81" stroke="#132e65" stroke-width="1.5"></path><path d="M-104.89 557.81L-45.18 688.47" stroke="#132e65" stroke-width="1.5"></path><path d="M-104.89 557.81L48.44 489.86" stroke="#132e65" stroke-width="1.5"></path><path d="M-104.89 557.81L-74.21 799.72" stroke="#132e65" stroke-width="1.5"></path><path d="M-104.89 557.81L40.57 832.78" stroke="#132e65" stroke-width="1.5"></path><path d="M-104.89 557.81L205.25 685.92" stroke="#132e65" stroke-width="1.5"></path><path d="M-104.89 557.81L249.23 557" stroke="#132e65" stroke-width="1.5"></path><path d="M-45.18 688.47L-45.18 688.47" stroke="#132e65" stroke-width="1.5"></path><path d="M-45.18 688.47L-74.21 799.72" stroke="#132e65" stroke-width="1.5"></path><path d="M-74.21 799.72L-74.21 799.72" stroke="#132e65" stroke-width="1.5"></path><path d="M-74.21 799.72L40.57 832.78" stroke="#132e65" stroke-width="1.5"></path><path d="M-74.21 799.72L205.25 685.92" stroke="#132e65" stroke-width="1.5"></path><path d="M-74.21 799.72L48.44 489.86" stroke="#132e65" stroke-width="1.5"></path><path d="M-74.21 799.72L249.23 557" stroke="#132e65" stroke-width="1.5"></path><path d="M48.44 489.86L48.44 489.86" stroke="#132e65" stroke-width="1.5"></path><path d="M48.44 489.86L227.37 401.69" stroke="#132e65" stroke-width="1.5"></path><path d="M48.44 489.86L249.23 557" stroke="#132e65" stroke-width="1.5"></path><path d="M40.57 832.78L40.57 832.78" stroke="#132e65" stroke-width="1.5"></path><path d="M40.57 832.78L-45.18 688.47" stroke="#132e65" stroke-width="1.5"></path><path d="M40.57 832.78L205.25 685.92" stroke="#132e65" stroke-width="1.5"></path><path d="M40.57 832.78L48.44 489.86" stroke="#132e65" stroke-width="1.5"></path><path d="M227.37 401.69L227.37 401.69" stroke="#132e65" stroke-width="1.5"></path><path d="M227.37 401.69L249.23 557" stroke="#132e65" stroke-width="1.5"></path><path d="M227.37 401.69L380.53 357.17" stroke="#132e65" stroke-width="1.5"></path><path d="M227.37 401.69L377.29 518.53" stroke="#132e65" stroke-width="1.5"></path><path d="M227.37 401.69L490.17 354.94" stroke="#132e65" stroke-width="1.5"></path><path d="M249.23 557L249.23 557" stroke="#132e65" stroke-width="1.5"></path><path d="M249.23 557L346.9 643.79" stroke="#132e65" stroke-width="1.5"></path><path d="M249.23 557L377.29 518.53" stroke="#132e65" stroke-width="1.5"></path><path d="M205.25 685.92L205.25 685.92" stroke="#132e65" stroke-width="1.5"></path><path d="M205.25 685.92L249.23 557" stroke="#132e65" stroke-width="1.5"></path><path d="M205.25 685.92L346.9 643.79" stroke="#132e65" stroke-width="1.5"></path><path d="M380.53 357.17L380.53 357.17" stroke="#132e65" stroke-width="1.5"></path><path d="M380.53 357.17L490.17 354.94" stroke="#132e65" stroke-width="1.5"></path><path d="M380.53 357.17L377.29 518.53" stroke="#132e65" stroke-width="1.5"></path><path d="M380.53 357.17L524.47 526.64" stroke="#132e65" stroke-width="1.5"></path><path d="M380.53 357.17L249.23 557" stroke="#132e65" stroke-width="1.5"></path><path d="M380.53 357.17L657.73 338.78" stroke="#132e65" stroke-width="1.5"></path><path d="M377.29 518.53L377.29 518.53" stroke="#132e65" stroke-width="1.5"></path><path d="M377.29 518.53L346.9 643.79" stroke="#132e65" stroke-width="1.5"></path><path d="M377.29 518.53L524.47 526.64" stroke="#132e65" stroke-width="1.5"></path><path d="M346.9 643.79L346.9 643.79" stroke="#132e65" stroke-width="1.5"></path><path d="M346.9 643.79L401.03 804.77" stroke="#132e65" stroke-width="1.5"></path><path d="M346.9 643.79L547.21 701.83" stroke="#132e65" stroke-width="1.5"></path><path d="M401.03 804.77L401.03 804.77" stroke="#132e65" stroke-width="1.5"></path><path d="M401.03 804.77L557.58 801.76" stroke="#132e65" stroke-width="1.5"></path><path d="M401.03 804.77L547.21 701.83" stroke="#132e65" stroke-width="1.5"></path><path d="M490.17 354.94L490.17 354.94" stroke="#132e65" stroke-width="1.5"></path><path d="M490.17 354.94L657.73 338.78" stroke="#132e65" stroke-width="1.5"></path><path d="M490.17 354.94L524.47 526.64" stroke="#132e65" stroke-width="1.5"></path><path d="M490.17 354.94L377.29 518.53" stroke="#132e65" stroke-width="1.5"></path><path d="M490.17 354.94L658.58 498.31" stroke="#132e65" stroke-width="1.5"></path><path d="M524.47 526.64L524.47 526.64" stroke="#132e65" stroke-width="1.5"></path><path d="M524.47 526.64L658.58 498.31" stroke="#132e65" stroke-width="1.5"></path><path d="M547.21 701.83L547.21 701.83" stroke="#132e65" stroke-width="1.5"></path><path d="M547.21 701.83L557.58 801.76" stroke="#132e65" stroke-width="1.5"></path><path d="M547.21 701.83L678.78 652.48" stroke="#132e65" stroke-width="1.5"></path><path d="M547.21 701.83L644.78 804" stroke="#132e65" stroke-width="1.5"></path><path d="M547.21 701.83L524.47 526.64" stroke="#132e65" stroke-width="1.5"></path><path d="M557.58 801.76L557.58 801.76" stroke="#132e65" stroke-width="1.5"></path><path d="M557.58 801.76L644.78 804" stroke="#132e65" stroke-width="1.5"></path><path d="M657.73 338.78L657.73 338.78" stroke="#132e65" stroke-width="1.5"></path><path d="M657.73 338.78L658.58 498.31" stroke="#132e65" stroke-width="1.5"></path><path d="M657.73 338.78L820.92 350.65" stroke="#132e65" stroke-width="1.5"></path><path d="M658.58 498.31L658.58 498.31" stroke="#132e65" stroke-width="1.5"></path><path d="M658.58 498.31L678.78 652.48" stroke="#132e65" stroke-width="1.5"></path><path d="M678.78 652.48L678.78 652.48" stroke="#132e65" stroke-width="1.5"></path><path d="M678.78 652.48L796.4 652.43" stroke="#132e65" stroke-width="1.5"></path><path d="M678.78 652.48L644.78 804" stroke="#132e65" stroke-width="1.5"></path><path d="M678.78 652.48L557.58 801.76" stroke="#132e65" stroke-width="1.5"></path><path d="M678.78 652.48L524.47 526.64" stroke="#132e65" stroke-width="1.5"></path><path d="M644.78 804L644.78 804" stroke="#132e65" stroke-width="1.5"></path><path d="M644.78 804L826.66 827.99" stroke="#132e65" stroke-width="1.5"></path><path d="M644.78 804L796.4 652.43" stroke="#132e65" stroke-width="1.5"></path><path d="M644.78 804L401.03 804.77" stroke="#132e65" stroke-width="1.5"></path><path d="M813.36 257.88L813.36 257.88" stroke="#132e65" stroke-width="1.5"></path><path d="M813.36 257.88L820.92 350.65" stroke="#132e65" stroke-width="1.5"></path><path d="M813.36 257.88L957.6 351.98" stroke="#132e65" stroke-width="1.5"></path><path d="M813.36 257.88L657.73 338.78" stroke="#132e65" stroke-width="1.5"></path><path d="M813.36 257.88L992.28 245.93" stroke="#132e65" stroke-width="1.5"></path><path d="M820.92 350.65L820.92 350.65" stroke="#132e65" stroke-width="1.5"></path><path d="M820.92 350.65L957.6 351.98" stroke="#132e65" stroke-width="1.5"></path><path d="M820.92 350.65L818.03 490.54" stroke="#132e65" stroke-width="1.5"></path><path d="M818.03 490.54L818.03 490.54" stroke="#132e65" stroke-width="1.5"></path><path d="M818.03 490.54L658.58 498.31" stroke="#132e65" stroke-width="1.5"></path><path d="M818.03 490.54L796.4 652.43" stroke="#132e65" stroke-width="1.5"></path><path d="M818.03 490.54L987.23 523.53" stroke="#132e65" stroke-width="1.5"></path><path d="M818.03 490.54L957.6 351.98" stroke="#132e65" stroke-width="1.5"></path><path d="M796.4 652.43L796.4 652.43" stroke="#132e65" stroke-width="1.5"></path><path d="M796.4 652.43L967.72 678.99" stroke="#132e65" stroke-width="1.5"></path><path d="M796.4 652.43L826.66 827.99" stroke="#132e65" stroke-width="1.5"></path><path d="M796.4 652.43L658.58 498.31" stroke="#132e65" stroke-width="1.5"></path><path d="M826.66 827.99L826.66 827.99" stroke="#132e65" stroke-width="1.5"></path><path d="M826.66 827.99L969.09 801.64" stroke="#132e65" stroke-width="1.5"></path><path d="M826.66 827.99L967.72 678.99" stroke="#132e65" stroke-width="1.5"></path><path d="M826.66 827.99L678.78 652.48" stroke="#132e65" stroke-width="1.5"></path><path d="M826.66 827.99L557.58 801.76" stroke="#132e65" stroke-width="1.5"></path><path d="M984.05 -40.91L984.05 -40.91" stroke="#132e65" stroke-width="1.5"></path><path d="M984.05 -40.91L994.82 56.65" stroke="#132e65" stroke-width="1.5"></path><path d="M984.05 -40.91L1144.45 -85.61" stroke="#132e65" stroke-width="1.5"></path><path d="M984.05 -40.91L1257.86 -89.4" stroke="#132e65" stroke-width="1.5"></path><path d="M984.05 -40.91L1103.32 211.6" stroke="#132e65" stroke-width="1.5"></path><path d="M994.82 56.65L994.82 56.65" stroke="#132e65" stroke-width="1.5"></path><path d="M994.82 56.65L1103.32 211.6" stroke="#132e65" stroke-width="1.5"></path><path d="M994.82 56.65L992.28 245.93" stroke="#132e65" stroke-width="1.5"></path><path d="M994.82 56.65L1144.45 -85.61" stroke="#132e65" stroke-width="1.5"></path><path d="M994.82 56.65L813.36 257.88" stroke="#132e65" stroke-width="1.5"></path><path d="M992.28 245.93L992.28 245.93" stroke="#132e65" stroke-width="1.5"></path><path d="M992.28 245.93L957.6 351.98" stroke="#132e65" stroke-width="1.5"></path><path d="M992.28 245.93L1103.32 211.6" stroke="#132e65" stroke-width="1.5"></path><path d="M957.6 351.98L957.6 351.98" stroke="#132e65" stroke-width="1.5"></path><path d="M957.6 351.98L1103.27 339.48" stroke="#132e65" stroke-width="1.5"></path><path d="M987.23 523.53L987.23 523.53" stroke="#132e65" stroke-width="1.5"></path><path d="M987.23 523.53L1103 502.65" stroke="#132e65" stroke-width="1.5"></path><path d="M987.23 523.53L967.72 678.99" stroke="#132e65" stroke-width="1.5"></path><path d="M967.72 678.99L967.72 678.99" stroke="#132e65" stroke-width="1.5"></path><path d="M967.72 678.99L969.09 801.64" stroke="#132e65" stroke-width="1.5"></path><path d="M967.72 678.99L1156.02 704.49" stroke="#132e65" stroke-width="1.5"></path><path d="M969.09 801.64L969.09 801.64" stroke="#132e65" stroke-width="1.5"></path><path d="M969.09 801.64L1128.61 830.49" stroke="#132e65" stroke-width="1.5"></path><path d="M969.09 801.64L1156.02 704.49" stroke="#132e65" stroke-width="1.5"></path><path d="M969.09 801.64L796.4 652.43" stroke="#132e65" stroke-width="1.5"></path><path d="M969.09 801.64L987.23 523.53" stroke="#132e65" stroke-width="1.5"></path><path d="M1144.45 -85.61L1144.45 -85.61" stroke="#132e65" stroke-width="1.5"></path><path d="M1144.45 -85.61L1257.86 -89.4" stroke="#132e65" stroke-width="1.5"></path><path d="M1144.45 -85.61L1309.82 78.27" stroke="#132e65" stroke-width="1.5"></path><path d="M1144.45 -85.61L1414.83 -80.92" stroke="#132e65" stroke-width="1.5"></path><path d="M1144.45 -85.61L1103.32 211.6" stroke="#132e65" stroke-width="1.5"></path><path d="M1103.32 211.6L1103.32 211.6" stroke="#132e65" stroke-width="1.5"></path><path d="M1103.27 339.48L1103.27 339.48" stroke="#132e65" stroke-width="1.5"></path><path d="M1103.27 339.48L1103.32 211.6" stroke="#132e65" stroke-width="1.5"></path><path d="M1103.27 339.48L992.28 245.93" stroke="#132e65" stroke-width="1.5"></path><path d="M1103 502.65L1103 502.65" stroke="#132e65" stroke-width="1.5"></path><path d="M1103 502.65L1103.27 339.48" stroke="#132e65" stroke-width="1.5"></path><path d="M1103 502.65L1267.6 534.89" stroke="#132e65" stroke-width="1.5"></path><path d="M1156.02 704.49L1156.02 704.49" stroke="#132e65" stroke-width="1.5"></path><path d="M1156.02 704.49L1128.61 830.49" stroke="#132e65" stroke-width="1.5"></path><path d="M1156.02 704.49L1305.79 684.14" stroke="#132e65" stroke-width="1.5"></path><path d="M1156.02 704.49L1304.54 813.47" stroke="#132e65" stroke-width="1.5"></path><path d="M1128.61 830.49L1128.61 830.49" stroke="#132e65" stroke-width="1.5"></path><path d="M1128.61 830.49L1304.54 813.47" stroke="#132e65" stroke-width="1.5"></path><path d="M1128.61 830.49L967.72 678.99" stroke="#132e65" stroke-width="1.5"></path><path d="M1128.61 830.49L1305.79 684.14" stroke="#132e65" stroke-width="1.5"></path><path d="M1128.61 830.49L1426.37 821.61" stroke="#132e65" stroke-width="1.5"></path><path d="M1257.86 -89.4L1257.86 -89.4" stroke="#132e65" stroke-width="1.5"></path><path d="M1309.82 78.27L1309.82 78.27" stroke="#132e65" stroke-width="1.5"></path><path d="M1309.82 78.27L1461.58 109.2" stroke="#132e65" stroke-width="1.5"></path><path d="M1309.82 78.27L1257.86 -89.4" stroke="#132e65" stroke-width="1.5"></path><path d="M1267.6 534.89L1267.6 534.89" stroke="#132e65" stroke-width="1.5"></path><path d="M1267.6 534.89L1305.79 684.14" stroke="#132e65" stroke-width="1.5"></path><path d="M1267.6 534.89L1429.57 557.12" stroke="#132e65" stroke-width="1.5"></path><path d="M1267.6 534.89L1434.88 645.36" stroke="#132e65" stroke-width="1.5"></path><path d="M1267.6 534.89L1156.02 704.49" stroke="#132e65" stroke-width="1.5"></path><path d="M1267.6 534.89L1391.81 373.8" stroke="#132e65" stroke-width="1.5"></path><path d="M1305.79 684.14L1305.79 684.14" stroke="#132e65" stroke-width="1.5"></path><path d="M1305.79 684.14L1304.54 813.47" stroke="#132e65" stroke-width="1.5"></path><path d="M1305.79 684.14L1434.88 645.36" stroke="#132e65" stroke-width="1.5"></path><path d="M1305.79 684.14L1429.57 557.12" stroke="#132e65" stroke-width="1.5"></path><path d="M1304.54 813.47L1304.54 813.47" stroke="#132e65" stroke-width="1.5"></path><path d="M1304.54 813.47L1426.37 821.61" stroke="#132e65" stroke-width="1.5"></path><path d="M1304.54 813.47L1434.88 645.36" stroke="#132e65" stroke-width="1.5"></path><path d="M1414.83 -80.92L1414.83 -80.92" stroke="#132e65" stroke-width="1.5"></path><path d="M1414.83 -80.92L1257.86 -89.4" stroke="#132e65" stroke-width="1.5"></path><path d="M1414.83 -80.92L1309.82 78.27" stroke="#132e65" stroke-width="1.5"></path><path d="M1414.83 -80.92L1461.58 109.2" stroke="#132e65" stroke-width="1.5"></path><path d="M1414.83 -80.92L1608.9 -48.24" stroke="#132e65" stroke-width="1.5"></path><path d="M1414.83 -80.92L1555.14 96.73" stroke="#132e65" stroke-width="1.5"></path><path d="M1461.58 109.2L1461.58 109.2" stroke="#132e65" stroke-width="1.5"></path><path d="M1461.58 109.2L1555.14 96.73" stroke="#132e65" stroke-width="1.5"></path><path d="M1461.58 109.2L1441.47 218.76" stroke="#132e65" stroke-width="1.5"></path><path d="M1441.47 218.76L1441.47 218.76" stroke="#132e65" stroke-width="1.5"></path><path d="M1441.47 218.76L1565.75 192.98" stroke="#132e65" stroke-width="1.5"></path><path d="M1441.47 218.76L1391.81 373.8" stroke="#132e65" stroke-width="1.5"></path><path d="M1391.81 373.8L1391.81 373.8" stroke="#132e65" stroke-width="1.5"></path><path d="M1391.81 373.8L1547.65 369.87" stroke="#132e65" stroke-width="1.5"></path><path d="M1429.57 557.12L1429.57 557.12" stroke="#132e65" stroke-width="1.5"></path><path d="M1429.57 557.12L1434.88 645.36" stroke="#132e65" stroke-width="1.5"></path><path d="M1429.57 557.12L1569.61 551.99" stroke="#132e65" stroke-width="1.5"></path><path d="M1434.88 645.36L1434.88 645.36" stroke="#132e65" stroke-width="1.5"></path><path d="M1426.37 821.61L1426.37 821.61" stroke="#132e65" stroke-width="1.5"></path><path d="M1426.37 821.61L1565.33 800.95" stroke="#132e65" stroke-width="1.5"></path><path d="M1426.37 821.61L1434.88 645.36" stroke="#132e65" stroke-width="1.5"></path><path d="M1426.37 821.61L1305.79 684.14" stroke="#132e65" stroke-width="1.5"></path><path d="M1426.37 821.61L1608.92 699.2" stroke="#132e65" stroke-width="1.5"></path><path d="M1426.37 821.61L1429.57 557.12" stroke="#132e65" stroke-width="1.5"></path><path d="M1608.9 -48.24L1608.9 -48.24" stroke="#132e65" stroke-width="1.5"></path><path d="M1608.9 -48.24L1555.14 96.73" stroke="#132e65" stroke-width="1.5"></path><path d="M1608.9 -48.24L1461.58 109.2" stroke="#132e65" stroke-width="1.5"></path><path d="M1608.9 -48.24L1565.75 192.98" stroke="#132e65" stroke-width="1.5"></path><path d="M1555.14 96.73L1555.14 96.73" stroke="#132e65" stroke-width="1.5"></path><path d="M1555.14 96.73L1565.75 192.98" stroke="#132e65" stroke-width="1.5"></path><path d="M1555.14 96.73L1441.47 218.76" stroke="#132e65" stroke-width="1.5"></path><path d="M1555.14 96.73L1309.82 78.27" stroke="#132e65" stroke-width="1.5"></path><path d="M1565.75 192.98L1565.75 192.98" stroke="#132e65" stroke-width="1.5"></path><path d="M1565.75 192.98L1461.58 109.2" stroke="#132e65" stroke-width="1.5"></path><path d="M1565.75 192.98L1547.65 369.87" stroke="#132e65" stroke-width="1.5"></path><path d="M1547.65 369.87L1547.65 369.87" stroke="#132e65" stroke-width="1.5"></path><path d="M1547.65 369.87L1569.61 551.99" stroke="#132e65" stroke-width="1.5"></path><path d="M1547.65 369.87L1441.47 218.76" stroke="#132e65" stroke-width="1.5"></path><path d="M1569.61 551.99L1569.61 551.99" stroke="#132e65" stroke-width="1.5"></path><path d="M1569.61 551.99L1608.92 699.2" stroke="#132e65" stroke-width="1.5"></path><path d="M1569.61 551.99L1434.88 645.36" stroke="#132e65" stroke-width="1.5"></path><path d="M1569.61 551.99L1565.33 800.95" stroke="#132e65" stroke-width="1.5"></path><path d="M1569.61 551.99L1391.81 373.8" stroke="#132e65" stroke-width="1.5"></path><path d="M1608.92 699.2L1608.92 699.2" stroke="#132e65" stroke-width="1.5"></path><path d="M1608.92 699.2L1565.33 800.95" stroke="#132e65" stroke-width="1.5"></path><path d="M1565.33 800.95L1565.33 800.95" stroke="#132e65" stroke-width="1.5"></path><path d="M1565.33 800.95L1434.88 645.36" stroke="#132e65" stroke-width="1.5"></path><circle r="5" cx="-104.89" cy="557.81" fill="#132e65"></circle><circle r="5" cx="-45.18" cy="688.47" fill="#132e65"></circle><circle r="5" cx="-74.21" cy="799.72" fill="#132e65"></circle><circle r="5" cx="48.44" cy="489.86" fill="#132e65"></circle><circle r="5" cx="40.57" cy="832.78" fill="#132e65"></circle><circle r="5" cx="227.37" cy="401.69" fill="#132e65"></circle><circle r="5" cx="249.23" cy="557" fill="#132e65"></circle><circle r="5" cx="205.25" cy="685.92" fill="#132e65"></circle><circle r="5" cx="380.53" cy="357.17" fill="#132e65"></circle><circle r="5" cx="377.29" cy="518.53" fill="#132e65"></circle><circle r="5" cx="346.9" cy="643.79" fill="#132e65"></circle><circle r="5" cx="401.03" cy="804.77" fill="#132e65"></circle><circle r="5" cx="490.17" cy="354.94" fill="#132e65"></circle><circle r="5" cx="524.47" cy="526.64" fill="#132e65"></circle><circle r="5" cx="547.21" cy="701.83" fill="#132e65"></circle><circle r="5" cx="557.58" cy="801.76" fill="#132e65"></circle><circle r="5" cx="657.73" cy="338.78" fill="#132e65"></circle><circle r="5" cx="658.58" cy="498.31" fill="#132e65"></circle><circle r="5" cx="678.78" cy="652.48" fill="#132e65"></circle><circle r="5" cx="644.78" cy="804" fill="#132e65"></circle><circle r="5" cx="813.36" cy="257.88" fill="#132e65"></circle><circle r="5" cx="820.92" cy="350.65" fill="#132e65"></circle><circle r="5" cx="818.03" cy="490.54" fill="#132e65"></circle><circle r="5" cx="796.4" cy="652.43" fill="#132e65"></circle><circle r="5" cx="826.66" cy="827.99" fill="#132e65"></circle><circle r="5" cx="984.05" cy="-40.91" fill="#132e65"></circle><circle r="5" cx="994.82" cy="56.65" fill="#132e65"></circle><circle r="5" cx="992.28" cy="245.93" fill="#132e65"></circle><circle r="5" cx="957.6" cy="351.98" fill="#132e65"></circle><circle r="5" cx="987.23" cy="523.53" fill="#132e65"></circle><circle r="5" cx="967.72" cy="678.99" fill="#132e65"></circle><circle r="5" cx="969.09" cy="801.64" fill="#132e65"></circle><circle r="5" cx="1144.45" cy="-85.61" fill="#132e65"></circle><circle r="5" cx="1103.32" cy="211.6" fill="#132e65"></circle><circle r="5" cx="1103.27" cy="339.48" fill="#132e65"></circle><circle r="5" cx="1103" cy="502.65" fill="#132e65"></circle><circle r="5" cx="1156.02" cy="704.49" fill="#132e65"></circle><circle r="5" cx="1128.61" cy="830.49" fill="#132e65"></circle><circle r="5" cx="1257.86" cy="-89.4" fill="#132e65"></circle><circle r="5" cx="1309.82" cy="78.27" fill="#132e65"></circle><circle r="5" cx="1267.6" cy="534.89" fill="#132e65"></circle><circle r="5" cx="1305.79" cy="684.14" fill="#132e65"></circle><circle r="5" cx="1304.54" cy="813.47" fill="#132e65"></circle><circle r="5" cx="1414.83" cy="-80.92" fill="#132e65"></circle><circle r="5" cx="1461.58" cy="109.2" fill="#132e65"></circle><circle r="5" cx="1441.47" cy="218.76" fill="#132e65"></circle><circle r="5" cx="1391.81" cy="373.8" fill="#132e65"></circle><circle r="5" cx="1429.57" cy="557.12" fill="#132e65"></circle><circle r="5" cx="1434.88" cy="645.36" fill="#132e65"></circle><circle r="5" cx="1426.37" cy="821.61" fill="#132e65"></circle><circle r="5" cx="1608.9" cy="-48.24" fill="#132e65"></circle><circle r="5" cx="1555.14" cy="96.73" fill="#132e65"></circle><circle r="5" cx="1565.75" cy="192.98" fill="#132e65"></circle><circle r="5" cx="1547.65" cy="369.87" fill="#132e65"></circle><circle r="5" cx="1569.61" cy="551.99" fill="#132e65"></circle><circle r="5" cx="1608.92" cy="699.2" fill="#132e65"></circle><circle r="5" cx="1565.33" cy="800.95" fill="#132e65"></circle><path d="M-87.04 541.89L-87.04 541.89" stroke="hsl(228.5, 77.2%, 51.5%)" stroke-width="1.5"></path><path d="M-87.04 541.89L-102.28 638.28" stroke="hsl(228.5, 77.2%, 51.5%)" stroke-width="1.5"></path><path d="M-87.04 541.89L67.86 504.08" stroke="hsl(228.5, 77.2%, 51.5%)" stroke-width="1.5"></path><path d="M-87.04 541.89L43.45 666.14" stroke="hsl(228.5, 77.2%, 51.5%)" stroke-width="1.5"></path><path d="M-87.04 541.89L189.33 550.73" stroke="hsl(228.5, 77.2%, 51.5%)" stroke-width="1.5"></path><path d="M-58.72 846.12L-58.72 846.12" stroke="hsl(228.5, 77.2%, 51.5%)" stroke-width="1.5"></path><path d="M-58.72 846.12L43.31 848.74" stroke="hsl(228.5, 77.2%, 51.5%)" stroke-width="1.5"></path><path d="M-58.72 846.12L43.45 666.14" stroke="hsl(228.5, 77.2%, 51.5%)" stroke-width="1.5"></path><path d="M-58.72 846.12L-102.28 638.28" stroke="hsl(228.5, 77.2%, 51.5%)" stroke-width="1.5"></path><path d="M-58.72 846.12L-87.04 541.89" stroke="hsl(228.5, 77.2%, 51.5%)" stroke-width="1.5"></path><path d="M405.83 847.25L405.83 847.25" stroke="hsl(228.5, 77.2%, 51.5%)" stroke-width="1.5"></path><path d="M405.83 847.25L258.6 858.43" stroke="hsl(228.5, 77.2%, 51.5%)" stroke-width="1.5"></path><path d="M405.83 847.25L558.51 806.11" stroke="hsl(228.5, 77.2%, 51.5%)" stroke-width="1.5"></path><path d="M405.83 847.25L377.03 668.41" stroke="hsl(228.5, 77.2%, 51.5%)" stroke-width="1.5"></path><path d="M405.83 847.25L489.44 672.2" stroke="hsl(228.5, 77.2%, 51.5%)" stroke-width="1.5"></path><path d="M558.51 806.11L558.51 806.11" stroke="hsl(228.5, 77.2%, 51.5%)" stroke-width="1.5"></path><path d="M558.51 806.11L658.09 833.16" stroke="hsl(228.5, 77.2%, 51.5%)" stroke-width="1.5"></path><path d="M558.51 806.11L489.44 672.2" stroke="hsl(228.5, 77.2%, 51.5%)" stroke-width="1.5"></path><path d="M848.99 859.37L848.99 859.37" stroke="hsl(228.5, 77.2%, 51.5%)" stroke-width="1.5"></path><path d="M848.99 859.37L1012.48 802.37" stroke="hsl(228.5, 77.2%, 51.5%)" stroke-width="1.5"></path><path d="M848.99 859.37L658.09 833.16" stroke="hsl(228.5, 77.2%, 51.5%)" stroke-width="1.5"></path><path d="M948.04 389.11L948.04 389.11" stroke="hsl(228.5, 77.2%, 51.5%)" stroke-width="1.5"></path><path d="M948.04 389.11L839.39 399.77" stroke="hsl(228.5, 77.2%, 51.5%)" stroke-width="1.5"></path><path d="M948.04 389.11L975.31 507.39" stroke="hsl(228.5, 77.2%, 51.5%)" stroke-width="1.5"></path><path d="M948.04 389.11L818.45 515.25" stroke="hsl(228.5, 77.2%, 51.5%)" stroke-width="1.5"></path><path d="M948.04 389.11L1150.1 401.78" stroke="hsl(228.5, 77.2%, 51.5%)" stroke-width="1.5"></path><path d="M948.04 389.11L1134.49 524.63" stroke="hsl(228.5, 77.2%, 51.5%)" stroke-width="1.5"></path><path d="M948.04 389.11L1136.97 233.55" stroke="hsl(228.5, 77.2%, 51.5%)" stroke-width="1.5"></path><path d="M1092.45 854.93L1092.45 854.93" stroke="hsl(228.5, 77.2%, 51.5%)" stroke-width="1.5"></path><path d="M1092.45 854.93L1012.48 802.37" stroke="hsl(228.5, 77.2%, 51.5%)" stroke-width="1.5"></path><path d="M1092.45 854.93L1272.05 861.84" stroke="hsl(228.5, 77.2%, 51.5%)" stroke-width="1.5"></path><path d="M1578.22 250.97L1578.22 250.97" stroke="hsl(228.5, 77.2%, 51.5%)" stroke-width="1.5"></path><path d="M1578.22 250.97L1458.17 259.57" stroke="hsl(228.5, 77.2%, 51.5%)" stroke-width="1.5"></path><path d="M1578.22 250.97L1580.17 409.45" stroke="hsl(228.5, 77.2%, 51.5%)" stroke-width="1.5"></path><path d="M1578.22 250.97L1583.16 82.01" stroke="hsl(228.5, 77.2%, 51.5%)" stroke-width="1.5"></path><path d="M1578.22 250.97L1447.78 83.7" stroke="hsl(228.5, 77.2%, 51.5%)" stroke-width="1.5"></path><path d="M1578.22 250.97L1288.41 247.36" stroke="hsl(228.5, 77.2%, 51.5%)" stroke-width="1.5"></path><path d="M1558.44 682.83L1558.44 682.83" stroke="hsl(228.5, 77.2%, 51.5%)" stroke-width="1.5"></path><path d="M1558.44 682.83L1581.98 801.58" stroke="hsl(228.5, 77.2%, 51.5%)" stroke-width="1.5"></path><path d="M1558.44 682.83L1544.57 557.9" stroke="hsl(228.5, 77.2%, 51.5%)" stroke-width="1.5"></path><path d="M1558.44 682.83L1408 704.2" stroke="hsl(228.5, 77.2%, 51.5%)" stroke-width="1.5"></path><path d="M1558.44 682.83L1397.95 825.38" stroke="hsl(228.5, 77.2%, 51.5%)" stroke-width="1.5"></path><path d="M-102.28 638.28L-102.28 638.28" stroke="hsl(228.5, 77.2%, 51.5%)" stroke-width="1.5"></path><path d="M-102.28 638.28L43.45 666.14" stroke="hsl(228.5, 77.2%, 51.5%)" stroke-width="1.5"></path><path d="M-102.28 638.28L67.86 504.08" stroke="hsl(228.5, 77.2%, 51.5%)" stroke-width="1.5"></path><path d="M-102.28 638.28L43.31 848.74" stroke="hsl(228.5, 77.2%, 51.5%)" stroke-width="1.5"></path><path d="M-102.28 638.28L189.33 550.73" stroke="hsl(228.5, 77.2%, 51.5%)" stroke-width="1.5"></path><path d="M67.86 504.08L67.86 504.08" stroke="hsl(228.5, 77.2%, 51.5%)" stroke-width="1.5"></path><path d="M67.86 504.08L189.33 550.73" stroke="hsl(228.5, 77.2%, 51.5%)" stroke-width="1.5"></path><path d="M67.86 504.08L43.45 666.14" stroke="hsl(228.5, 77.2%, 51.5%)" stroke-width="1.5"></path><path d="M43.45 666.14L43.45 666.14" stroke="hsl(228.5, 77.2%, 51.5%)" stroke-width="1.5"></path><path d="M43.31 848.74L43.31 848.74" stroke="hsl(228.5, 77.2%, 51.5%)" stroke-width="1.5"></path><path d="M43.31 848.74L43.45 666.14" stroke="hsl(228.5, 77.2%, 51.5%)" stroke-width="1.5"></path><path d="M43.31 848.74L258.6 858.43" stroke="hsl(228.5, 77.2%, 51.5%)" stroke-width="1.5"></path><path d="M189.33 550.73L189.33 550.73" stroke="hsl(228.5, 77.2%, 51.5%)" stroke-width="1.5"></path><path d="M189.33 550.73L351.02 535.44" stroke="hsl(228.5, 77.2%, 51.5%)" stroke-width="1.5"></path><path d="M189.33 550.73L43.45 666.14" stroke="hsl(228.5, 77.2%, 51.5%)" stroke-width="1.5"></path><path d="M189.33 550.73L377.03 668.41" stroke="hsl(228.5, 77.2%, 51.5%)" stroke-width="1.5"></path><path d="M258.6 858.43L258.6 858.43" stroke="hsl(228.5, 77.2%, 51.5%)" stroke-width="1.5"></path><path d="M258.6 858.43L377.03 668.41" stroke="hsl(228.5, 77.2%, 51.5%)" stroke-width="1.5"></path><path d="M351.02 535.44L351.02 535.44" stroke="hsl(228.5, 77.2%, 51.5%)" stroke-width="1.5"></path><path d="M351.02 535.44L377.03 668.41" stroke="hsl(228.5, 77.2%, 51.5%)" stroke-width="1.5"></path><path d="M377.03 668.41L377.03 668.41" stroke="hsl(228.5, 77.2%, 51.5%)" stroke-width="1.5"></path><path d="M377.03 668.41L489.44 672.2" stroke="hsl(228.5, 77.2%, 51.5%)" stroke-width="1.5"></path><path d="M526.05 552.27L526.05 552.27" stroke="hsl(228.5, 77.2%, 51.5%)" stroke-width="1.5"></path><path d="M526.05 552.27L489.44 672.2" stroke="hsl(228.5, 77.2%, 51.5%)" stroke-width="1.5"></path><path d="M526.05 552.27L646.53 641.18" stroke="hsl(228.5, 77.2%, 51.5%)" stroke-width="1.5"></path><path d="M526.05 552.27L678.76 525.79" stroke="hsl(228.5, 77.2%, 51.5%)" stroke-width="1.5"></path><path d="M526.05 552.27L351.02 535.44" stroke="hsl(228.5, 77.2%, 51.5%)" stroke-width="1.5"></path><path d="M526.05 552.27L377.03 668.41" stroke="hsl(228.5, 77.2%, 51.5%)" stroke-width="1.5"></path><path d="M489.44 672.2L489.44 672.2" stroke="hsl(228.5, 77.2%, 51.5%)" stroke-width="1.5"></path><path d="M678.76 525.79L678.76 525.79" stroke="hsl(228.5, 77.2%, 51.5%)" stroke-width="1.5"></path><path d="M678.76 525.79L646.53 641.18" stroke="hsl(228.5, 77.2%, 51.5%)" stroke-width="1.5"></path><path d="M678.76 525.79L818.45 515.25" stroke="hsl(228.5, 77.2%, 51.5%)" stroke-width="1.5"></path><path d="M646.53 641.18L646.53 641.18" stroke="hsl(228.5, 77.2%, 51.5%)" stroke-width="1.5"></path><path d="M646.53 641.18L489.44 672.2" stroke="hsl(228.5, 77.2%, 51.5%)" stroke-width="1.5"></path><path d="M658.09 833.16L658.09 833.16" stroke="hsl(228.5, 77.2%, 51.5%)" stroke-width="1.5"></path><path d="M658.09 833.16L646.53 641.18" stroke="hsl(228.5, 77.2%, 51.5%)" stroke-width="1.5"></path><path d="M839.39 399.77L839.39 399.77" stroke="hsl(228.5, 77.2%, 51.5%)" stroke-width="1.5"></path><path d="M839.39 399.77L818.45 515.25" stroke="hsl(228.5, 77.2%, 51.5%)" stroke-width="1.5"></path><path d="M839.39 399.77L975.31 507.39" stroke="hsl(228.5, 77.2%, 51.5%)" stroke-width="1.5"></path><path d="M839.39 399.77L678.76 525.79" stroke="hsl(228.5, 77.2%, 51.5%)" stroke-width="1.5"></path><path d="M839.39 399.77L646.53 641.18" stroke="hsl(228.5, 77.2%, 51.5%)" stroke-width="1.5"></path><path d="M839.39 399.77L1150.1 401.78" stroke="hsl(228.5, 77.2%, 51.5%)" stroke-width="1.5"></path><path d="M818.45 515.25L818.45 515.25" stroke="hsl(228.5, 77.2%, 51.5%)" stroke-width="1.5"></path><path d="M975.31 507.39L975.31 507.39" stroke="hsl(228.5, 77.2%, 51.5%)" stroke-width="1.5"></path><path d="M975.31 507.39L818.45 515.25" stroke="hsl(228.5, 77.2%, 51.5%)" stroke-width="1.5"></path><path d="M1012.48 802.37L1012.48 802.37" stroke="hsl(228.5, 77.2%, 51.5%)" stroke-width="1.5"></path><path d="M1012.48 802.37L1272.05 861.84" stroke="hsl(228.5, 77.2%, 51.5%)" stroke-width="1.5"></path><path d="M1012.48 802.37L975.31 507.39" stroke="hsl(228.5, 77.2%, 51.5%)" stroke-width="1.5"></path><path d="M1012.48 802.37L1134.49 524.63" stroke="hsl(228.5, 77.2%, 51.5%)" stroke-width="1.5"></path><path d="M1136.97 233.55L1136.97 233.55" stroke="hsl(228.5, 77.2%, 51.5%)" stroke-width="1.5"></path><path d="M1136.97 233.55L1288.41 247.36" stroke="hsl(228.5, 77.2%, 51.5%)" stroke-width="1.5"></path><path d="M1136.97 233.55L1150.1 401.78" stroke="hsl(228.5, 77.2%, 51.5%)" stroke-width="1.5"></path><path d="M1136.97 233.55L1305.04 382.97" stroke="hsl(228.5, 77.2%, 51.5%)" stroke-width="1.5"></path><path d="M1150.1 401.78L1150.1 401.78" stroke="hsl(228.5, 77.2%, 51.5%)" stroke-width="1.5"></path><path d="M1150.1 401.78L1134.49 524.63" stroke="hsl(228.5, 77.2%, 51.5%)" stroke-width="1.5"></path><path d="M1150.1 401.78L1252.19 509.85" stroke="hsl(228.5, 77.2%, 51.5%)" stroke-width="1.5"></path><path d="M1134.49 524.63L1134.49 524.63" stroke="hsl(228.5, 77.2%, 51.5%)" stroke-width="1.5"></path><path d="M1134.49 524.63L1252.19 509.85" stroke="hsl(228.5, 77.2%, 51.5%)" stroke-width="1.5"></path><path d="M1134.49 524.63L975.31 507.39" stroke="hsl(228.5, 77.2%, 51.5%)" stroke-width="1.5"></path><path d="M1273.89 -73.51L1273.89 -73.51" stroke="hsl(228.5, 77.2%, 51.5%)" stroke-width="1.5"></path><path d="M1273.89 -73.51L1306.68 40.55" stroke="hsl(228.5, 77.2%, 51.5%)" stroke-width="1.5"></path><path d="M1273.89 -73.51L1394.21 -63.62" stroke="hsl(228.5, 77.2%, 51.5%)" stroke-width="1.5"></path><path d="M1306.68 40.55L1306.68 40.55" stroke="hsl(228.5, 77.2%, 51.5%)" stroke-width="1.5"></path><path d="M1306.68 40.55L1394.21 -63.62" stroke="hsl(228.5, 77.2%, 51.5%)" stroke-width="1.5"></path><path d="M1306.68 40.55L1447.78 83.7" stroke="hsl(228.5, 77.2%, 51.5%)" stroke-width="1.5"></path><path d="M1288.41 247.36L1288.41 247.36" stroke="hsl(228.5, 77.2%, 51.5%)" stroke-width="1.5"></path><path d="M1288.41 247.36L1305.04 382.97" stroke="hsl(228.5, 77.2%, 51.5%)" stroke-width="1.5"></path><path d="M1288.41 247.36L1458.17 259.57" stroke="hsl(228.5, 77.2%, 51.5%)" stroke-width="1.5"></path><path d="M1288.41 247.36L1150.1 401.78" stroke="hsl(228.5, 77.2%, 51.5%)" stroke-width="1.5"></path><path d="M1288.41 247.36L1306.68 40.55" stroke="hsl(228.5, 77.2%, 51.5%)" stroke-width="1.5"></path><path d="M1288.41 247.36L1447.78 83.7" stroke="hsl(228.5, 77.2%, 51.5%)" stroke-width="1.5"></path><path d="M1305.04 382.97L1305.04 382.97" stroke="hsl(228.5, 77.2%, 51.5%)" stroke-width="1.5"></path><path d="M1305.04 382.97L1252.19 509.85" stroke="hsl(228.5, 77.2%, 51.5%)" stroke-width="1.5"></path><path d="M1305.04 382.97L1150.1 401.78" stroke="hsl(228.5, 77.2%, 51.5%)" stroke-width="1.5"></path><path d="M1305.04 382.97L1418.23 500.19" stroke="hsl(228.5, 77.2%, 51.5%)" stroke-width="1.5"></path><path d="M1305.04 382.97L1458.17 259.57" stroke="hsl(228.5, 77.2%, 51.5%)" stroke-width="1.5"></path><path d="M1252.19 509.85L1252.19 509.85" stroke="hsl(228.5, 77.2%, 51.5%)" stroke-width="1.5"></path><path d="M1302.26 658.83L1302.26 658.83" stroke="hsl(228.5, 77.2%, 51.5%)" stroke-width="1.5"></path><path d="M1302.26 658.83L1408 704.2" stroke="hsl(228.5, 77.2%, 51.5%)" stroke-width="1.5"></path><path d="M1302.26 658.83L1252.19 509.85" stroke="hsl(228.5, 77.2%, 51.5%)" stroke-width="1.5"></path><path d="M1302.26 658.83L1397.95 825.38" stroke="hsl(228.5, 77.2%, 51.5%)" stroke-width="1.5"></path><path d="M1302.26 658.83L1418.23 500.19" stroke="hsl(228.5, 77.2%, 51.5%)" stroke-width="1.5"></path><path d="M1302.26 658.83L1272.05 861.84" stroke="hsl(228.5, 77.2%, 51.5%)" stroke-width="1.5"></path><path d="M1272.05 861.84L1272.05 861.84" stroke="hsl(228.5, 77.2%, 51.5%)" stroke-width="1.5"></path><path d="M1272.05 861.84L1397.95 825.38" stroke="hsl(228.5, 77.2%, 51.5%)" stroke-width="1.5"></path><path d="M1272.05 861.84L1408 704.2" stroke="hsl(228.5, 77.2%, 51.5%)" stroke-width="1.5"></path><path d="M1394.21 -63.62L1394.21 -63.62" stroke="hsl(228.5, 77.2%, 51.5%)" stroke-width="1.5"></path><path d="M1394.21 -63.62L1447.78 83.7" stroke="hsl(228.5, 77.2%, 51.5%)" stroke-width="1.5"></path><path d="M1447.78 83.7L1447.78 83.7" stroke="hsl(228.5, 77.2%, 51.5%)" stroke-width="1.5"></path><path d="M1447.78 83.7L1583.16 82.01" stroke="hsl(228.5, 77.2%, 51.5%)" stroke-width="1.5"></path><path d="M1447.78 83.7L1458.17 259.57" stroke="hsl(228.5, 77.2%, 51.5%)" stroke-width="1.5"></path><path d="M1458.17 259.57L1458.17 259.57" stroke="hsl(228.5, 77.2%, 51.5%)" stroke-width="1.5"></path><path d="M1418.23 500.19L1418.23 500.19" stroke="hsl(228.5, 77.2%, 51.5%)" stroke-width="1.5"></path><path d="M1418.23 500.19L1544.57 557.9" stroke="hsl(228.5, 77.2%, 51.5%)" stroke-width="1.5"></path><path d="M1418.23 500.19L1252.19 509.85" stroke="hsl(228.5, 77.2%, 51.5%)" stroke-width="1.5"></path><path d="M1418.23 500.19L1580.17 409.45" stroke="hsl(228.5, 77.2%, 51.5%)" stroke-width="1.5"></path><path d="M1408 704.2L1408 704.2" stroke="hsl(228.5, 77.2%, 51.5%)" stroke-width="1.5"></path><path d="M1408 704.2L1397.95 825.38" stroke="hsl(228.5, 77.2%, 51.5%)" stroke-width="1.5"></path><path d="M1397.95 825.38L1397.95 825.38" stroke="hsl(228.5, 77.2%, 51.5%)" stroke-width="1.5"></path><path d="M1583.16 82.01L1583.16 82.01" stroke="hsl(228.5, 77.2%, 51.5%)" stroke-width="1.5"></path><path d="M1580.17 409.45L1580.17 409.45" stroke="hsl(228.5, 77.2%, 51.5%)" stroke-width="1.5"></path><path d="M1580.17 409.45L1544.57 557.9" stroke="hsl(228.5, 77.2%, 51.5%)" stroke-width="1.5"></path><path d="M1544.57 557.9L1544.57 557.9" stroke="hsl(228.5, 77.2%, 51.5%)" stroke-width="1.5"></path><path d="M1544.57 557.9L1408 704.2" stroke="hsl(228.5, 77.2%, 51.5%)" stroke-width="1.5"></path><path d="M1581.98 801.58L1581.98 801.58" stroke="hsl(228.5, 77.2%, 51.5%)" stroke-width="1.5"></path><path d="M1581.98 801.58L1397.95 825.38" stroke="hsl(228.5, 77.2%, 51.5%)" stroke-width="1.5"></path><path d="M1581.98 801.58L1408 704.2" stroke="hsl(228.5, 77.2%, 51.5%)" stroke-width="1.5"></path><path d="M1581.98 801.58L1544.57 557.9" stroke="hsl(228.5, 77.2%, 51.5%)" stroke-width="1.5"></path><path d="M1581.98 801.58L1302.26 658.83" stroke="hsl(228.5, 77.2%, 51.5%)" stroke-width="1.5"></path><path d="M1581.98 801.58L1272.05 861.84" stroke="hsl(228.5, 77.2%, 51.5%)" stroke-width="1.5"></path><circle r="25" cx="-87.04" cy="541.89" fill="url(#SvgjsRadialGradient1292)"></circle><circle r="25" cx="-58.72" cy="846.12" fill="url(#SvgjsRadialGradient1292)"></circle><circle r="25" cx="405.83" cy="847.25" fill="url(#SvgjsRadialGradient1292)"></circle><circle r="25" cx="558.51" cy="806.11" fill="url(#SvgjsRadialGradient1292)"></circle><circle r="25" cx="848.99" cy="859.37" fill="url(#SvgjsRadialGradient1292)"></circle><circle r="25" cx="948.04" cy="389.11" fill="url(#SvgjsRadialGradient1292)"></circle><circle r="25" cx="1092.45" cy="854.93" fill="url(#SvgjsRadialGradient1292)"></circle><circle r="25" cx="1578.22" cy="250.97" fill="url(#SvgjsRadialGradient1292)"></circle><circle r="25" cx="1558.44" cy="682.83" fill="url(#SvgjsRadialGradient1292)"></circle><circle r="5" cx="-102.28" cy="638.28" fill="#8b9ad9"></circle><circle r="5" cx="67.86" cy="504.08" fill="#8b9ad9"></circle><circle r="5" cx="43.45" cy="666.14" fill="#8b9ad9"></circle><circle r="5" cx="43.31" cy="848.74" fill="#8b9ad9"></circle><circle r="5" cx="189.33" cy="550.73" fill="#8b9ad9"></circle><circle r="5" cx="258.6" cy="858.43" fill="#8b9ad9"></circle><circle r="5" cx="351.02" cy="535.44" fill="#8b9ad9"></circle><circle r="5" cx="377.03" cy="668.41" fill="#8b9ad9"></circle><circle r="5" cx="526.05" cy="552.27" fill="#8b9ad9"></circle><circle r="5" cx="489.44" cy="672.2" fill="#8b9ad9"></circle><circle r="5" cx="678.76" cy="525.79" fill="#8b9ad9"></circle><circle r="5" cx="646.53" cy="641.18" fill="#8b9ad9"></circle><circle r="5" cx="658.09" cy="833.16" fill="#8b9ad9"></circle><circle r="5" cx="839.39" cy="399.77" fill="#8b9ad9"></circle><circle r="5" cx="818.45" cy="515.25" fill="#8b9ad9"></circle><circle r="5" cx="975.31" cy="507.39" fill="#8b9ad9"></circle><circle r="5" cx="1012.48" cy="802.37" fill="#8b9ad9"></circle><circle r="5" cx="1136.97" cy="233.55" fill="#8b9ad9"></circle><circle r="5" cx="1150.1" cy="401.78" fill="#8b9ad9"></circle><circle r="5" cx="1134.49" cy="524.63" fill="#8b9ad9"></circle><circle r="5" cx="1273.89" cy="-73.51" fill="#8b9ad9"></circle><circle r="5" cx="1306.68" cy="40.55" fill="#8b9ad9"></circle><circle r="5" cx="1288.41" cy="247.36" fill="#8b9ad9"></circle><circle r="5" cx="1305.04" cy="382.97" fill="#8b9ad9"></circle><circle r="5" cx="1252.19" cy="509.85" fill="#8b9ad9"></circle><circle r="5" cx="1302.26" cy="658.83" fill="#8b9ad9"></circle><circle r="5" cx="1272.05" cy="861.84" fill="#8b9ad9"></circle><circle r="5" cx="1394.21" cy="-63.62" fill="#8b9ad9"></circle><circle r="5" cx="1447.78" cy="83.7" fill="#8b9ad9"></circle><circle r="5" cx="1458.17" cy="259.57" fill="#8b9ad9"></circle><circle r="5" cx="1418.23" cy="500.19" fill="#8b9ad9"></circle><circle r="5" cx="1408" cy="704.2" fill="#8b9ad9"></circle><circle r="5" cx="1397.95" cy="825.38" fill="#8b9ad9"></circle><circle r="5" cx="1583.16" cy="82.01" fill="#8b9ad9"></circle><circle r="5" cx="1580.17" cy="409.45" fill="#8b9ad9"></circle><circle r="5" cx="1544.57" cy="557.9" fill="#8b9ad9"></circle><circle r="5" cx="1581.98" cy="801.58" fill="#8b9ad9"></circle></g><defs><mask id="SvgjsMask1291"><rect width="1490" height="614" fill="#ffffff"></rect></mask><radialGradient id="SvgjsRadialGradient1292"><stop stop-color="#ffffff" offset="0.1"></stop><stop stop-color="#1735b3" offset="0.2"></stop><stop stop-color="rgba(23, 53, 179, 0)" offset="1"></stop></radialGradient></defs></svg>