<svg xmlns="http://www.w3.org/2000/svg" version="1.1" xmlns:xlink="http://www.w3.org/1999/xlink" xmlns:svgjs="http://svgjs.com/svgjs" width="1440" height="500" preserveAspectRatio="none" viewBox="0 0 1440 500"><g mask="url(&quot;#SvgjsMask1147&quot;)" fill="none"><path d="M19 500L519 0L864 0L364 500z" fill="url(#SvgjsLinearGradient1148)"></path><path d="M380.8 500L880.8 0L1108.8 0L608.8 500z" fill="url(#SvgjsLinearGradient1148)"></path><path d="M642.6 500L1142.6 0L1607.6 0L1107.6 500z" fill="url(#SvgjsLinearGradient1148)"></path><path d="M1416 500L916 0L842.5 0L1342.5 500z" fill="url(#SvgjsLinearGradient1149)"></path><path d="M1119.2 500L619.2 0L224.70000000000005 0L724.7 500z" fill="url(#SvgjsLinearGradient1149)"></path><path d="M801.4 500L301.4 0L-93.10000000000002 0L406.9 500z" fill="url(#SvgjsLinearGradient1149)"></path><path d="M1049.3276350739354 500L1440 109.32763507393537L1440 500z" fill="url(#SvgjsLinearGradient1148)"></path><path d="M0 500L390.67236492606463 500L 0 109.32763507393537z" fill="url(#SvgjsLinearGradient1149)"></path></g><defs><mask id="SvgjsMask1147"><rect width="1440" height="500" fill="#ffffff"></rect></mask><linearGradient x1="0%" y1="100%" x2="100%" y2="0%" id="SvgjsLinearGradient1148"><stop stop-color="rgba(233, 154, 137, 0.5)" offset="0"></stop><stop stop-opacity="0" stop-color="rgba(233, 154, 137, 0.5)" offset="0.66"></stop></linearGradient><linearGradient x1="100%" y1="100%" x2="0%" y2="0%" id="SvgjsLinearGradient1149"><stop stop-color="rgba(233, 154, 137, 0.5)" offset="0"></stop><stop stop-opacity="0" stop-color="rgba(233, 154, 137, 0.5)" offset="0.66"></stop></linearGradient></defs></svg>